<?xml version="1.0" standalone="no"?>
<!DOCTYPE svg PUBLIC "-//W3C//DTD SVG 1.1//EN" "http://www.w3.org/Graphics/SVG/1.1/DTD/svg11.dtd" >
<svg xmlns="http://www.w3.org/2000/svg" xmlns:xlink="http://www.w3.org/1999/xlink" version="1.1">
<metadata>
Created by FontForge 20200314 at Wed May 31 06:20:34 2017
 By www-data
</metadata>
<defs>
<font id="PingFangHK" horiz-adv-x="887" >
  <font-face 
    font-family="PingFang HK"
    font-weight="400"
    font-stretch="normal"
    units-per-em="1000"
    panose-1="2 11 4 0 0 0 0 0 0 0"
    ascent="859"
    descent="-141"
    bbox="-52 -131 931 850"
    underline-thickness="52"
    underline-position="-159"
    unicode-range="U+000D-23231"
  />
<missing-glyph 
 />
    <glyph glyph-name=".notdef" 
 />
    <glyph glyph-name="cid1" horiz-adv-x="0" 
 />
    <glyph glyph-name="cid2" unicode="&#xd;" horiz-adv-x="295" 
 />
    <glyph glyph-name="cid98" horiz-adv-x="0" 
 />
    <glyph glyph-name="cid112" unicode="&#xad;" horiz-adv-x="295" 
d="M37 303h222v-60h-222v60z" />
    <glyph glyph-name="cid120" unicode="&#xb5;" horiz-adv-x="496" 
d="M126 503v-284q0 -127 117 -127q50 0 85 34q36 37 42 97v280h72v-460h-72v72q-14 -22 -30 -37.5t-31 -25.5q-34 -21 -79 -21q-69 0 -104 49v-211h-71v634h71z" />
    <glyph glyph-name="cid224" unicode="&#x138;" horiz-adv-x="469" 
d="M55 503h71v-213l230 213h93l-201 -186l221 -274h-91l-179 228l-73 -64v-164h-71v460z" />
    <glyph glyph-name="cid228" unicode="&#x140;" horiz-adv-x="324" 
d="M266 402q19 0 29 -11q12 -12 12 -29q0 -15 -12 -29q-11 -11 -29 -11q-14 0 -28 11q-10 12 -10 29q0 18 10 29q12 11 28 11zM139 689v-646h-70v646h70z" />
    <glyph glyph-name="cid233" unicode="&#x149;" horiz-adv-x="581" 
d="M90 689l-17 -167h-56l2 167h71zM356 515q170 0 170 -190v-282h-70v278q0 133 -121 133q-49 0 -83 -34q-35 -36 -42 -99v-278h-71v460h71v-68q26 38 62 59q40 21 84 21z" />
    <glyph glyph-name="cid234" unicode="&#x14a;" horiz-adv-x="633" 
d="M139 677l357 -511h3v511h73v-687q0 -121 -129 -121h-51v58h45q62 0 62 66v54l-362 517h-2v-521h-74v634h78z" />
    <glyph glyph-name="cid235" unicode="&#x14b;" horiz-adv-x="495" 
d="M270 515q171 0 171 -190v-335q0 -121 -129 -121h-42v58h37q62 0 62 66v328q0 133 -119 133q-48 0 -83 -34q-38 -38 -41 -99v-278h-71v460h71v-68q24 38 61 59q39 21 83 21z" />
    <glyph glyph-name="cid262" unicode="&#x17f;" horiz-adv-x="331" 
d="M326 677v-62h-78q-31 0 -44 -14t-13 -48v-510h-70v400h-117v60h117v51q0 58 28 90q31 33 89 33h88z" />
    <glyph glyph-name="cid274" unicode="&#x2bb;" horiz-adv-x="443" 
d="M283 739q-34 -12 -56 -39q-20 -24 -20 -59q5 3 20 3q23 0 37 -15q16 -17 16 -40q0 -22 -15 -38q-17 -17 -41 -17q-31 0 -49 26q-18 23 -18 62q0 59 34 102q35 45 92 59v-44z" />
    <glyph glyph-name="cid278" unicode="&#x2c9;" horiz-adv-x="443" 
d="M89 799h265v-44h-265v44z" />
    <glyph glyph-name="cid285" unicode="&#x2ee;" horiz-adv-x="443" 
d="M309 784q28 0 48 -24q18 -25 18 -63q0 -57 -35 -103q-34 -42 -90 -59v45q15 6 29 16t26 22q19 27 19 60q-6 -2 -18 -2q-24 0 -40 15q-15 17 -15 38q0 25 15 40q17 15 43 15zM134 784q28 0 48 -24q17 -24 17 -63q0 -59 -35 -103q-34 -42 -91 -59v45q32 10 55 38
q11 14 16 28.5t5 31.5q-8 -2 -20 -2q-25 0 -37 15q-15 15 -15 38q0 26 16 40q13 15 41 15z" />
    <glyph glyph-name="cid311" unicode="&#x338;" horiz-adv-x="443" 
d="M353 514l32 -20l-293 -464l-35 22z" />
    <glyph glyph-name="cid312" unicode="&#x340;" horiz-adv-x="443" 
d="M136 684h81l90 -130h-48z" />
    <glyph glyph-name="cid313" unicode="&#x341;" horiz-adv-x="443" 
d="M227 684h80l-122 -130h-49z" />
    <glyph glyph-name="cid314" unicode="&#x344;" horiz-adv-x="443" 
d="M356 814l-121 -130h-50l89 130h82zM301 648q17 0 29 -12q11 -13 11 -29t-11 -29q-13 -11 -29 -11q-18 0 -29 11q-10 11 -10 29q0 17 10 29q11 12 29 12zM142 648q18 0 30 -12q11 -11 11 -29t-11 -29q-13 -11 -30 -11t-28 11t-11 29t11 29q11 12 28 12z" />
    <glyph glyph-name="cid325" unicode="&#x2015;" 
d="M0 397h887v-69h-887v69z" />
    <glyph glyph-name="cid326" unicode="&#x2018;" horiz-adv-x="301" 
d="M229 739q-37 -12 -56 -39q-21 -28 -21 -59q5 3 21 3q21 0 37 -15q17 -17 17 -40t-17 -38q-16 -17 -42 -17q-30 0 -47 26q-18 24 -18 62q0 59 34 102q33 45 92 59v-44z" />
    <glyph glyph-name="cid327" unicode="&#x2019;" horiz-adv-x="301" 
d="M132 784q28 0 48 -24q17 -24 17 -63q0 -59 -35 -103q-34 -42 -91 -59v45q34 11 55 38t21 60q-8 -2 -20 -2q-23 0 -38 15q-16 17 -16 38q0 26 15 40q16 15 44 15z" />
    <glyph glyph-name="cid329" unicode="&#x201c;" horiz-adv-x="476" 
d="M404 739q-37 -12 -57 -39q-18 -24 -18 -59q4 3 18 3q25 0 40 -15q14 -18 14 -40q0 -24 -16 -38q-17 -17 -41 -17q-30 0 -49 26q-17 24 -17 62q0 59 34 102q34 45 92 59v-44zM229 739q-37 -12 -56 -39q-21 -28 -21 -59q5 3 21 3q21 0 37 -15q17 -17 17 -40t-17 -38
q-16 -17 -42 -17q-30 0 -47 26q-18 24 -18 62q0 59 34 102q33 45 92 59v-44z" />
    <glyph glyph-name="cid330" unicode="&#x201d;" horiz-adv-x="476" 
d="M306 784q29 0 49 -24q17 -24 17 -63q0 -59 -35 -103q-34 -42 -91 -59v45q36 11 56 38q19 26 19 60q-7 -2 -19 -2q-23 0 -38 15q-15 17 -15 38q0 25 16 40q14 15 41 15zM132 784q28 0 48 -24q17 -24 17 -63q0 -59 -35 -103q-34 -42 -91 -59v45q34 11 55 38t21 60
q-8 -2 -20 -2q-23 0 -38 15q-16 17 -16 38q0 26 15 40q16 15 44 15z" />
    <glyph glyph-name="cid365" unicode="&#x2126;" horiz-adv-x="651" 
d="M324 689q132 0 211 -89q79 -86 79 -217q0 -187 -147 -276h145v-64h-228v72q77 44 114 99q21 33 32.5 76t11.5 94q0 104 -63 173q-64 68 -155 68t-152 -68q-62 -67 -62 -173q0 -105 43 -170q37 -55 114 -99v-72h-229v64h146q-147 88 -147 276q0 132 78 217q79 89 209 89z
" />
    <glyph glyph-name="cid366" unicode="&#x212b;" horiz-adv-x="582" 
d="M291 850q29 0 53 -22q23 -22 23 -54q0 -30 -23 -53q-24 -21 -53 -21t-53 21q-23 23 -23 53q0 32 23 54q24 22 53 22zM291 820q-19 0 -32 -13t-13 -33q0 -18 13 -31q15 -12 32 -12q18 0 32 12q8 5 10.5 14t2.5 17q0 21 -13 33q-13 13 -32 13zM333 677l249 -634h-79
l-67 178h-290l-68 -178h-78l250 634h83zM413 281l-119 318h-5l-121 -318h245z" />
    <glyph glyph-name="cid367" unicode="&#x212e;" horiz-adv-x="719" 
d="M359 609q133 0 222 -85q91 -87 91 -212v-18h-524v-155q36 -46 91 -70q26 -11 56.5 -17.5t63.5 -6.5q84 0 151 39q62 37 104 110h36q-41 -87 -116 -135q-80 -48 -175 -48q-133 0 -221 82q-92 85 -92 217q0 130 92 216q88 83 221 83zM359 575q-65 0 -120 -24t-91 -71v-153
h423v153q-37 47 -92 71t-120 24z" />
    <glyph glyph-name="cid375" unicode="&#x2206;" horiz-adv-x="592" 
d="M255 677h81l245 -634h-571zM296 585l-184 -476h367z" />
    <glyph glyph-name="cid388" unicode="&#x22c5;" horiz-adv-x="305" 
d="M152 428q25 0 45 -20q18 -17 18 -43q0 -27 -18 -47q-18 -18 -45 -18q-26 0 -45 18q-19 22 -19 47t19 43q20 20 45 20z" />
    <glyph glyph-name="cid392" unicode="&#xfb00;" horiz-adv-x="608" 
d="M326 677v-62h-78q-31 0 -44 -14t-13 -48v-50h206v51q0 56 29 89q30 34 90 34h88v-62h-80q-29 0 -42 -14q-15 -15 -15 -48v-50h130v-60h-130v-400h-70v400h-206v-400h-70v400h-117v60h117v51q0 58 28 90q31 33 89 33h88z" />
    <glyph glyph-name="cid395" unicode="&#xfb03;" horiz-adv-x="816" 
d="M326 677v-62h-78q-31 0 -44 -14t-13 -48v-50h206v51q0 56 29 89q30 34 90 34h88v-62h-80q-29 0 -42 -14q-15 -15 -15 -48v-50h280v-460h-71v400h-209v-400h-70v400h-206v-400h-70v400h-117v60h117v51q0 58 28 90q31 33 89 33h88z" />
    <glyph glyph-name="cid396" unicode="&#xfb04;" horiz-adv-x="816" 
d="M326 677v-62h-78q-31 0 -44 -14t-13 -48v-50h206v51q0 56 29 89q30 34 90 34h231v-634h-71v572h-152q-29 0 -42 -14q-15 -15 -15 -48v-50h130v-60h-130v-400h-70v400h-206v-400h-70v400h-117v60h117v51q0 58 28 90q31 33 89 33h88z" />
    <glyph glyph-name="cid407" 
d="M443 184q58 0 116 -9.5t116 -30.5q98 -33 182 -90v-63q-92 55 -183 85q-116 39 -231 39q-114 0 -230 -39q-49 -16 -94.5 -37.5t-88.5 -47.5v63q42 30 87.5 52.5t94.5 37.5q58 21 115.5 30.5t115.5 9.5z" />
    <glyph glyph-name="cid408" 
d="M30 736q85 -53 183 -83q116 -40 230 -40q115 0 231 40q95 30 183 83v-61q-88 -60 -182 -92q-58 -20 -116 -29.5t-116 -9.5t-115.5 9.5t-115.5 29.5q-99 35 -182 92v61z" />
    <glyph glyph-name="cid425" unicode="&#x2ca;" horiz-adv-x="443" 
d="M227 842h80l-122 -129h-49z" />
    <glyph glyph-name="cid426" unicode="&#x2cb;" horiz-adv-x="443" 
d="M136 842h81l90 -129h-48z" />
    <glyph glyph-name="cid539" unicode="&#x2010;" horiz-adv-x="295" 
d="M37 393h222v-60h-222v60z" />
    <glyph glyph-name="cid540" unicode="&#x2016;" horiz-adv-x="443" 
d="M95 732h44v-738h-44v738zM305 732h43v-738h-43v738z" />
    <glyph glyph-name="cid544" unicode="&#x2035;" horiz-adv-x="443" 
d="M136 842h81l90 -129h-48z" />
    <glyph glyph-name="cid545" unicode="&#x203b;" 
d="M443 690q24 0 40 -14q15 -18 15 -40t-15 -36q-16 -15 -40 -15q-23 0 -38 15q-15 14 -15 36q0 24 15 40q15 14 38 14zM443 407l221 220l43 -44l-219 -220l219 -220l-43 -46l-221 220l-219 -220l-44 46l219 220l-219 220l44 44zM171 417q23 0 38 -15q16 -14 16 -37
q0 -21 -16 -39q-17 -14 -38 -14t-38 14q-17 19 -17 39q0 24 17 37q15 15 38 15zM714 417q25 0 41 -15q15 -14 15 -37q0 -21 -15 -39q-19 -14 -41 -14q-19 0 -37 14q-15 17 -15 39q0 24 15 37q15 15 37 15zM443 144q24 0 40 -14q15 -15 15 -38q0 -21 -15 -38q-18 -15 -40 -15
q-21 0 -38 15q-15 16 -15 38q0 24 15 38t38 14z" />
    <glyph glyph-name="cid546" unicode="&#x2103;" horiz-adv-x="818" 
d="M128 780q46 0 78 -33q32 -34 32 -78t-32 -77q-32 -31 -78 -31q-45 0 -76 31q-32 32 -32 77q0 46 32 78q31 33 76 33zM128 738q-27 0 -47 -19q-21 -19 -21 -50q0 -28 21 -47q21 -21 47 -21t49 21q20 21 20 47q0 28 -20 50q-21 19 -49 19zM510 689q106 0 176 -56
q71 -54 85 -150h-70q-14 69 -68 106q-50 36 -125 36q-110 0 -171 -78q-55 -73 -55 -190q0 -119 54 -187q60 -74 170 -74q77 0 128 41q58 41 76 124h70q-21 -112 -100 -171q-72 -59 -174 -59q-146 0 -226 98q-71 88 -71 228q0 141 73 232q78 100 228 100z" />
    <glyph glyph-name="cid548" unicode="&#x2109;" horiz-adv-x="766" 
d="M128 780q46 0 78 -33q32 -34 32 -78t-32 -77q-32 -31 -78 -31q-45 0 -76 31q-32 32 -32 77q0 46 32 78q31 33 76 33zM128 738q-27 0 -47 -19q-21 -19 -21 -50q0 -28 21 -47q21 -21 47 -21t49 21q20 21 20 47q0 28 -20 50q-21 19 -49 19zM729 677v-64h-344v-212h323v-63
h-323v-295h-74v634h418z" />
    <glyph glyph-name="cid550" unicode="&#x2160;" 
d="M408 677h71v-634h-71v634z" />
    <glyph glyph-name="cid551" unicode="&#x2161;" 
d="M290 677h74v-634h-74v634zM524 677h73v-634h-73v634z" />
    <glyph glyph-name="cid552" unicode="&#x2162;" 
d="M179 677h72v-634h-72v634zM408 677h71v-634h-71v634zM636 677h72v-634h-72v634z" />
    <glyph glyph-name="cid553" unicode="&#x2163;" 
d="M109 677h73v-634h-73v634zM274 677h79l182 -548h1l178 548h82l-219 -634h-86z" />
    <glyph glyph-name="cid554" unicode="&#x2164;" 
d="M164 677h80l199 -555h2l198 555h80l-234 -634h-90z" />
    <glyph glyph-name="cid555" unicode="&#x2165;" 
d="M92 677h80l181 -548v0l182 548h79l-218 -634h-87zM705 677h73v-634h-73v634z" />
    <glyph glyph-name="cid556" unicode="&#x2166;" 
d="M30 677h80l158 -534h2l160 534h78l-199 -634h-79zM573 677h73v-634h-73v634zM747 677h71v-634h-71v634z" />
    <glyph glyph-name="cid557" unicode="&#x2167;" 
d="M20 677h76l126 -522h2l124 522h77l-163 -634h-80zM480 677h70v-634h-70v634zM625 677h71v-634h-71v634zM769 677h70v-634h-70v634z" />
    <glyph glyph-name="cid558" unicode="&#x2168;" 
d="M94 677h78v-634h-78v634zM275 677h89l172 -247l171 247h90l-218 -304l234 -330h-90l-187 271l-190 -271h-88l233 330z" />
    <glyph glyph-name="cid559" unicode="&#x2169;" 
d="M183 677h89l171 -247l172 247h88l-216 -304l234 -330h-89l-189 272l-189 -272h-89l234 330z" />
    <glyph glyph-name="cid560" unicode="&#x216a;" 
d="M90 677h90l172 -247l171 247h89l-217 -304l234 -330h-89l-188 272l-189 -272h-90l234 330zM714 677h78v-634h-78v634z" />
    <glyph glyph-name="cid561" unicode="&#x216b;" 
d="M37 677h91l142 -241l142 241h90l-188 -309l197 -325h-89l-152 255l-151 -255h-89l197 325zM577 677h77v-634h-77v634zM751 677h76v-634h-76v634z" />
    <glyph glyph-name="cid562" unicode="&#x2170;" 
d="M443 676q24 0 40 -16q15 -15 15 -37q0 -21 -15 -38q-16 -15 -40 -15q-23 0 -38 15t-15 38t15 37q15 16 38 16zM478 503v-460h-70v460h70z" />
    <glyph glyph-name="cid563" unicode="&#x2171;" 
d="M328 676q24 0 38 -16q15 -14 15 -37t-16 -38q-15 -15 -37 -15q-23 0 -39 15q-15 16 -15 38q0 23 15 37q16 16 39 16zM560 676q23 0 38 -16q16 -14 16 -37t-16 -38q-15 -15 -38 -15t-38 15q-16 15 -16 38t16 37q15 16 38 16zM363 503v-460h-72v460h72zM595 503v-460h-71
v460h71z" />
    <glyph glyph-name="cid564" unicode="&#x2172;" 
d="M228 676q24 0 38 -16q16 -14 16 -37t-17 -38q-14 -15 -37 -15t-38 15t-15 38t15 37q15 16 38 16zM443 676q24 0 40 -16q15 -15 15 -37q0 -21 -15 -38q-16 -15 -40 -15q-23 0 -38 15t-15 38t15 37q15 16 38 16zM660 676q23 0 39 -16q14 -15 14 -37q0 -21 -14 -38
q-16 -15 -39 -15q-22 0 -39 15q-16 16 -16 38q0 23 16 37q17 16 39 16zM263 503v-460h-71v460h71zM478 503v-460h-70v460h70zM696 503v-460h-71v460h71z" />
    <glyph glyph-name="cid565" unicode="&#x2173;" 
d="M191 676q23 0 38 -16q15 -14 15 -37q0 -22 -15 -38q-15 -15 -38 -15q-24 0 -39 15q-16 16 -16 38q0 23 16 37q15 16 39 16zM227 503v-460h-71v460h71zM410 503l132 -370l131 370h78l-174 -460h-72l-172 460h77z" />
    <glyph glyph-name="cid566" unicode="&#x2174;" 
d="M235 503h77l131 -371l131 371h78l-173 -460h-71z" />
    <glyph glyph-name="cid567" unicode="&#x2175;" 
d="M214 503l131 -370l132 370h77l-173 -460h-72l-173 460h78zM697 676q24 0 38 -16q16 -14 16 -37t-17 -38q-14 -15 -37 -15t-37 15q-16 15 -16 38q0 25 16 37q14 16 37 16zM732 503v-460h-71v460h71z" />
    <glyph glyph-name="cid568" unicode="&#x2176;" 
d="M584 676q23 0 38 -16q16 -14 16 -37t-16 -38q-15 -15 -38 -15t-38 15q-17 16 -17 38q0 23 17 37q15 16 38 16zM765 676q23 0 38 -16q15 -14 15 -37t-16 -38q-15 -15 -37 -15q-23 0 -39 15q-15 15 -15 38t15 37q16 16 39 16zM124 503l130 -370l133 370h77l-174 -460h-72
l-172 460h78zM619 503v-460h-70v460h70zM800 503v-460h-70v460h70z" />
    <glyph glyph-name="cid569" unicode="&#x2177;" 
d="M491 676q23 0 37 -16q15 -15 15 -37q0 -21 -15 -38q-14 -15 -37 -15q-22 0 -37 15t-15 38t15 37q15 16 37 16zM640 676q21 0 36 -16q15 -14 15 -37t-15 -38t-36 -15q-23 0 -37 15q-16 16 -16 38q0 23 16 37q14 16 37 16zM786 676q23 0 38 -16q14 -15 14 -37
q0 -21 -14 -38q-15 -15 -38 -15t-36 15q-16 15 -16 38t16 37q13 16 36 16zM109 503l109 -364l111 364h75l-152 -460h-69l-150 460h76zM526 503v-460h-68v460h68zM673 503v-460h-68v460h68zM821 503v-460h-68v460h68z" />
    <glyph glyph-name="cid570" unicode="&#x2178;" 
d="M189 676q24 0 39 -16q14 -14 14 -37t-14 -38q-15 -15 -39 -15t-37 15q-16 15 -16 38q0 25 16 37q13 16 37 16zM225 503v-460h-72v460h72zM418 503l119 -164l117 164h84l-163 -216l182 -244h-84l-136 192l-138 -192h-85l182 244l-162 216h84z" />
    <glyph glyph-name="cid571" unicode="&#x2179;" 
d="M242 503h82l120 -164l118 164h83l-162 -216l182 -244h-84l-137 192l-137 -192h-83l180 244z" />
    <glyph glyph-name="cid593" unicode="&#x2236;" horiz-adv-x="443" 
d="M222 677q24 0 39 -16q15 -15 15 -36q0 -13 -4.5 -21t-10.5 -18q-18 -14 -39 -14t-39 14q-15 16 -15 39t15 36q15 16 39 16zM222 149q24 0 39 -15t15 -38q0 -20 -15 -37q-18 -16 -39 -16t-39 16q-15 14 -15 37q0 24 15 38q15 15 39 15z" />
    <glyph glyph-name="cid824" unicode="&#x3005;" 
d="M443 743q-18 -54 -37.5 -103.5t-42.5 -93.5h408v-50q-88 -219 -255 -340q86 -70 156 -142l-47 -47q-60 65 -140 133t-184 143l43 43q34 -23 64 -45.5t59 -45.5q149 106 232 287h-370q-71 -122 -168 -206l-46 42q181 178 267 441z" />
    <glyph glyph-name="cid829" unicode="&#x300a;" horiz-adv-x="662" 
d="M409 778l58 -26l-174 -389l172 -389l-56 -25l-182 414zM553 778l55 -26l-172 -389l172 -389l-55 -25l-182 414z" />
    <glyph glyph-name="cid830" unicode="&#x300b;" horiz-adv-x="663" 
d="M109 778l181 -415l-181 -414l-56 25l173 389l-173 389zM252 778l183 -415l-183 -414l-55 25l171 389l-174 389z" />
    <glyph glyph-name="cid831" unicode="&#x300c;" horiz-adv-x="597" 
d="M286 778h284v-61h-219v-483h-65v544z" />
    <glyph glyph-name="cid832" unicode="&#x300d;" horiz-adv-x="595" 
d="M246 493h64v-544h-284v59h220v485z" />
    <glyph glyph-name="cid833" unicode="&#x300e;" horiz-adv-x="611" 
d="M270 778h314v-169h-147v-375h-167v544zM315 732v-454h77v376h145v78h-222z" />
    <glyph glyph-name="cid834" unicode="&#x300f;" horiz-adv-x="612" 
d="M173 493h168v-544h-315v168h147v376zM218 448v-376h-145v-78h223v454h-78z" />
    <glyph glyph-name="cid1106" 
d="M443 355l414 -183l-24 -57l-390 175l-389 -173l-24 55zM443 211l414 -182l-24 -55l-390 171l-389 -171l-24 55z" />
    <glyph glyph-name="cid1107" 
d="M54 755l389 -174l390 174l24 -55l-414 -185l-413 185zM54 610l389 -172l390 174l24 -57l-414 -183l-413 183z" />
    <glyph glyph-name="cid1110" 
d="M313 230h544v-283h-59v218h-485v65z" />
    <glyph glyph-name="cid1111" 
d="M30 780h58v-219h485v-65h-543v284z" />
    <glyph glyph-name="cid1112" 
d="M313 261h544v-314h-169v146h-375v168zM359 216v-77h375v-146h78v223h-453z" />
    <glyph glyph-name="cid1113" 
d="M30 780h168v-147h375v-169h-543v316zM74 733v-223h453v77h-375v146h-78z" />
    <glyph glyph-name="cid1150" unicode="&#xff05;" 
d="M649 689l-355 -658h-56l355 658h56zM218 677q72 0 110 -52q32 -47 32 -122t-32 -122q-40 -51 -110 -51q-69 0 -108 51q-34 48 -34 122q0 75 34 122q37 52 108 52zM218 629q-41 0 -59 -38q-18 -33 -18 -88t18 -87q20 -38 59 -38q41 0 60 39q16 31 16 86t-16 87
q-18 39 -60 39zM668 391q72 0 110 -53q33 -46 33 -121t-33 -122q-38 -52 -110 -52t-107 52q-35 48 -35 122q0 76 35 121q35 53 107 53zM668 343q-40 0 -60 -38q-15 -30 -15 -88q0 -56 15 -87q19 -38 60 -38q40 0 61 39q7 16 11.5 37t4.5 49q0 54 -17 87q-20 39 -60 39z" />
    <glyph glyph-name="cid1153" unicode="&#xff08;" horiz-adv-x="571" 
d="M499 778q-53 -90 -84 -186q-39 -115 -39 -229q0 -115 39 -231q30 -92 84 -183h-61q-58 86 -92 183q-39 112 -39 230q0 120 39 232q33 95 92 184h61z" />
    <glyph glyph-name="cid1154" unicode="&#xff09;" horiz-adv-x="572" 
d="M133 778q29 -44 51.5 -89.5t40.5 -94.5q38 -112 38 -232q0 -118 -38 -230q-18 -48 -40.5 -94t-51.5 -89h-62q27 44 47.5 89.5t37.5 93.5q19 59 28.5 116t9.5 115q0 59 -9.5 115t-28.5 114q-17 49 -37.5 95.5t-47.5 90.5h62z" />
    <glyph glyph-name="cid1246" unicode="&#x4e00;" 
d="M45 401h796v-63h-796v63z" />
    <glyph glyph-name="cid1246" unicode="&#x2f00;" 
d="M45 401h796v-63h-796v63z" />
    <glyph glyph-name="cid1247" unicode="&#x4e01;" 
d="M826 704v-61h-343v-591q0 -90 -90 -90h-139l-14 63q69 -4 132 -4q47 0 47 47v575h-358v61h765z" />
    <glyph glyph-name="cid1250" unicode="&#x4e08;" 
d="M506 617v150h65v-150h261v-63h-263q-9 -113 -37.5 -203.5t-79.5 -160.5q154 -114 401 -178l-32 -57q-127 34 -228.5 80.5t-180.5 106.5q-118 -115 -339 -186l-36 55q217 69 323 173q-142 126 -190 299l56 20q48 -160 176 -273q88 126 101 324h-444v63h447z" />
    <glyph glyph-name="cid1251" unicode="&#x4e09;" 
d="M109 701h670v-63h-670v63zM168 394h552v-62h-552v62zM44 65h799v-62h-799v62z" />
    <glyph glyph-name="cid1252" unicode="&#x4e0a;" 
d="M368 768h67v-273h328v-64h-328v-378h403v-63h-789v63h319v715z" />
    <glyph glyph-name="cid1253" unicode="&#x4e0b;" 
d="M837 721v-63h-385v-134q164 -81 335 -191l-37 -57q-179 118 -298 181v-503h-64v704h-339v63h788z" />
    <glyph glyph-name="cid1259" unicode="&#x4e13;" 
d="M298 498q9 28 15 54.5t13 55.5h-221v59h235q5 27 10.5 54t11.5 53l65 -5q-5 -26 -9.5 -52t-9.5 -50h381v-59h-396q-6 -30 -12.5 -57t-13.5 -53h474v-62h-491q-9 -32 -19 -61t-19 -57h422v-54q-66 -100 -199 -199q39 -14 77.5 -30.5t74.5 -32.5l-35 -56
q-101 48 -203.5 86.5t-208.5 67.5l34 50q100 -28 192 -59q61 40 109 82.5t84 85.5h-439q17 43 31.5 87t30.5 90h-236v62h252z" />
    <glyph glyph-name="cid1260" unicode="&#x4e14;" 
d="M251 451v-170h387v170h-387zM638 512v160h-387v-160h387zM251 222v-174h387v174h-387zM49 48h137v685h516v-685h135v-63h-788v63z" />
    <glyph glyph-name="cid1262" unicode="&#x4e16;" 
d="M44 557h113v201h65v-201h180v209h64v-209h179v209h63v-209h134v-61h-134v-279h-306v279h-180v-442h590v-64h-655v506h-113v61zM466 496v-218h179v218h-179z" />
    <glyph glyph-name="cid1263" unicode="&#x4e18;" 
d="M235 57h321v337h-321v-337zM831 57v-64h-774v64h113v603q152 17 277.5 41.5t224.5 56.5l31 -57q-103 -31 -219.5 -54t-248.5 -39v-152h554v-62h-169v-337h211z" />
    <glyph glyph-name="cid1264" unicode="&#x4e19;" 
d="M431 338q-57 -141 -181 -228l-48 42q162 108 199 320h-233v-517h-63v578h305q3 31 3 65v62h-363v62h786v-62h-359v-62q-1 -17 -1.5 -32.5t-2.5 -32.5h309v-473q0 -99 -86 -99h-107l-16 63l102 -3q45 0 45 52v399h-253q-5 -22 -9 -42t-10 -38q128 -92 231 -212l-35 -55
q-107 131 -213 213z" />
    <glyph glyph-name="cid1265" unicode="&#x4e1a;" 
d="M380 759v-705h125v705h65v-705h266v-62h-786v62h264v705h66zM812 581q-54 -230 -134 -405l-58 21q39 79 72.5 179t62.5 222zM127 600q34 -91 66 -193.5t58 -218.5l-59 -16q-47 211 -119 409z" />
    <glyph glyph-name="cid1267" unicode="&#x4e1c;" 
d="M288 660q13 29 24.5 57.5t23.5 60.5l64 -15q-11 -26 -21.5 -51.5t-21.5 -51.5h453v-61h-480q-66 -126 -140 -219h240v130h64v-130h280v-59h-280v-283q0 -81 -84 -81h-93l-12 62q21 -2 41.5 -3t41.5 -1q42 0 42 39v267h-307l-16 56q41 43 79 98t73 124h-190v61h219z
M300 211q-87 -119 -217 -211l-40 53q125 84 212 198zM640 251q119 -103 202 -210l-46 -46q-38 52 -87 104.5t-112 111.5z" />
    <glyph glyph-name="cid1268" unicode="&#x4e1d;" 
d="M836 54v-61h-786v61h786zM326 732q-84 -171 -169 -274q73 6 152 17q12 23 25.5 47.5t30.5 51.5l58 -20q-118 -210 -237 -332q63 6 121 14t113 19l12 -58q-76 -12 -160.5 -22.5t-177.5 -17.5l-12 61q80 34 189 199q-86 -12 -177 -21l-15 57q13 5 25 23q48 62 87.5 132
t73.5 149zM703 733q-42 -88 -84.5 -156t-83.5 -119q36 3 74.5 7.5t76.5 9.5q13 23 26.5 46.5t27.5 48.5l61 -19q-118 -211 -233 -328q63 6 123.5 13.5t116.5 17.5l13 -58q-154 -24 -345 -37l-11 60q80 34 185 198l-179 -21l-15 56q14 7 26 24q91 122 161 281z" />
    <glyph glyph-name="cid1269" unicode="&#x4e1e;" 
d="M800 510q-80 -100 -179 -150q84 -116 214 -176l-35 -55q-224 112 -322 402l-3 -1v-336q0 -85 -85 -85h-88l-16 58q19 0 39 -0.5t43 -0.5q46 0 46 50v347q64 33 111.5 57t79.5 44h-433v59h528v-59q-82 -56 -177 -109q29 -83 69 -150q86 47 164 149zM353 510v-52
q-77 -202 -272 -330l-37 50q166 108 245 274h-208v58h272zM827 56v-62h-767v62h767z" />
    <glyph glyph-name="cid1271" unicode="&#x4e24;" 
d="M835 728v-64h-239v-137h196v-475q0 -90 -78 -90h-89l-17 64l88 -4q34 0 34 43v399h-137q-1 -18 -2.5 -36t-3.5 -35q31 -47 61.5 -98.5t62.5 -109.5l-39 -59q-28 64 -52 114t-44 85q-33 -153 -115 -241l-47 41q107 111 121 339h-189q-3 -46 -10 -86q27 -33 52 -70.5
t51 -78.5l-35 -54q-24 46 -43.5 81.5t-36.5 61.5q-30 -132 -105 -213l-47 42q100 105 115 317h-130v-505h-63v568h195v137h-237v64h783zM536 527v137h-188v-137h188z" />
    <glyph glyph-name="cid1275" unicode="&#x4e2a;" 
d="M476 506v-550h-65v550h65zM471 767q56 -92 152 -172t232 -150l-39 -57q-250 130 -373 320q-75 -106 -167 -186.5t-206 -138.5l-38 58q247 125 383 326h56z" />
    <glyph glyph-name="cid1278" unicode="&#x4e2d;" 
d="M411 771h65v-159h318v-416h-63v55h-255v-302h-65v302h-254v-55h-64v416h318v159zM157 314h254v237h-254v-237zM476 314h255v237h-255v-237z" />
    <glyph glyph-name="cid1280" unicode="&#x4e32;" 
d="M134 677h277v93h65v-93h278v-227h-278v-90h311v-246h-311v-158h-65v158h-310v246h310v90h-277v227zM690 505v117h-214v-117h214zM411 505v117h-213v-117h213zM723 168v137h-247v-137h247zM411 168v137h-247v-137h247z" />
    <glyph glyph-name="cid1281" unicode="&#x4e34;" 
d="M286 767v-809h-62v809h62zM811 -39h-60v46h-312v-46h-60v409h432v-409zM568 68v243h-129v-243h129zM627 68h124v243h-124v-243zM593 565q74 -77 115 -132l-49 -36q-43 63 -117 137zM135 656v-552h-62v552h62zM471 597q-49 -96 -107 -166l-45 53q96 110 157 289l64 -14
q-10 -26 -19 -51t-19 -48h334v-63h-365z" />
    <glyph glyph-name="cid1282" unicode="&#x4e36;" 
d="M332 535q182 -158 301 -316l-49 -48q-108 150 -299 321z" />
    <glyph glyph-name="cid1282" unicode="&#x2f02;" 
d="M332 535q182 -158 301 -316l-49 -48q-108 150 -299 321z" />
    <glyph glyph-name="cid1284" unicode="&#x4e39;" 
d="M222 372v360h484v-360h130v-61h-130v-268q0 -78 -83 -78h-102l-18 62q27 -1 52.5 -1.5t48.5 -0.5q37 0 37 40v246h-357q-17 -218 -132 -357l-49 44q104 128 115 313h-168v61h172zM641 672h-355v-300h355v300zM420 622q41 -48 72 -88.5t54 -75.5l-51 -35q-49 76 -127 166z
" />
    <glyph glyph-name="cid1285" unicode="&#x4e3a;" 
d="M163 746q40 -40 69 -75.5t51 -64.5l-50 -36q-23 33 -52.5 69t-66.5 73zM475 372q48 -52 84.5 -98t62.5 -85l-56 -39q-26 44 -61.5 91t-81.5 99zM427 768v-105q-1 -30 -2 -58t-3 -55h365q0 -379 -33 -485q-34 -104 -125 -104q-65 0 -110 4l-17 62q35 -2 65.5 -3.5
t58.5 -1.5q75 5 85 150q7 72 9.5 150.5t2.5 163.5h-308q-20 -165 -74 -279q-79 -160 -260 -248l-35 56q179 92 248 240q41 100 59 231h-276v64h282q3 27 4 55t2 58v105h62z" />
    <glyph glyph-name="cid1286" unicode="&#x4e3b;" 
d="M81 554v63h335q-23 72 -54 137l61 16q35 -74 52 -139l-34 -14h364v-63h-329v-209h287v-58h-287v-239h361v-63h-787v63h362v239h-288v58h288v209h-331z" />
    <glyph glyph-name="cid1290" unicode="&#x4e43;" 
d="M677 723v-31q-11 -61 -26 -123.5t-34 -126.5h198v-30q-5 -121 -11 -199t-15 -115q-16 -76 -55 -105q-39 -27 -120 -27h-109l-20 64q31 -2 58 -3t51 -1q35 0 58.5 5.5t37.5 14.5q28 22 39 79q5 29 10.5 92t11.5 164h-216q22 75 40 144t30 135h-245q-13 -293 -63 -434
q-62 -155 -201 -266l-43 56q127 96 184 237q25 65 39.5 166.5t20.5 240.5h-209v63h589z" />
    <glyph glyph-name="cid1291" unicode="&#x4e45;" 
d="M471 268q-162 -211 -400 -312l-37 62q355 145 538 556h-271q-84 -129 -211 -226l-42 56q202 150 273 372l71 -8q-11 -33 -24 -66t-29 -64h310v-54q-30 -74 -64 -138t-72 -121q102 -194 336 -308l-49 -58q-225 124 -329 309z" />
    <glyph glyph-name="cid1293" unicode="&#x4e48;" 
d="M631 343q55 -83 102.5 -170t88.5 -180l-64 -27q-8 23 -18.5 44.5t-19.5 43.5q-117 -22 -257.5 -36.5t-306.5 -25.5l-19 66q14 5 28 15t28 25q172 177 368 514l64 -32q-117 -191 -209.5 -319.5t-161.5 -197.5q229 16 437 48q-30 59 -59 111.5t-62 100.5zM450 757
q-138 -288 -366 -476l-44 53q210 167 342 437z" />
    <glyph glyph-name="cid1295" unicode="&#x4e4b;" 
d="M407 771q19 -34 39.5 -74t40.5 -84h275v-48q-153 -295 -453 -448l5 -7q56 -63 150 -72q30 -1 74 -1.5t103 -0.5q35 0 83.5 1t110.5 3l-14 -63h-171q-58 0 -100 0.5t-67 1.5q-143 3 -218 98q-25 29 -45 29q-37 0 -110 -148l-52 35q88 179 166 179q17 0 29 -8l9 -4
q276 143 422 391h-572v62h304q-18 41 -38.5 77t-44.5 69z" />
    <glyph glyph-name="cid1296" unicode="&#x4e4c;" 
d="M628 171v-61h-578v61h578zM545 15q27 -1 53.5 -1.5t52.5 -0.5q40 0 52 34q11 35 16 224h-542v400h175q12 26 21 52.5t16 55.5l67 -9q-8 -26 -19 -51t-23 -48h273q-1 -179 -26 -226q-27 -49 -119 -49h-49l-18 56q20 -1 40.5 -1h38.5q51 0 62 35q3 20 6 51t3 75h-383v-282
h540q-2 -124 -8 -201.5t-17 -110.5q-23 -63 -106 -63h-87z" />
    <glyph glyph-name="cid1297" unicode="&#x4e4d;" 
d="M263 578q-72 -127 -164 -223l-44 52q138 137 227 365l64 -13q-25 -67 -51 -119h535v-62h-403v-149h335v-61h-335v-149h359v-62h-359v-199h-64v620h-100z" />
    <glyph glyph-name="cid1298" unicode="&#x4e4e;" 
d="M424 348v286q-71 -5 -149.5 -8t-164.5 -3l-20 59q203 1 369.5 17.5t299.5 49.5l32 -56q-65 -16 -140 -29.5t-161 -22.5v-293h348v-61h-348v-240q0 -87 -81 -87h-121l-13 64q30 -3 57.5 -4.5t54.5 -1.5q37 0 37 46v223h-374v61h374zM740 594q-34 -114 -89 -201l-58 22
q48 77 85 195zM218 576q24 -39 45 -81t40 -87l-53 -24q-20 50 -43 93t-47 79z" />
    <glyph glyph-name="cid1299" unicode="&#x4e4f;" 
d="M798 704q-134 -33 -310.5 -48t-399.5 -15l-19 59q418 0 697 60zM420 612q17 -27 34.5 -58t34.5 -67h253v-58q-154 -206 -429 -331q55 -58 130 -60q23 0 49.5 -0.5t57.5 -0.5q134 0 287 3l-12 -65h-264q-32 0 -59 1t-50 2q-86 5 -131 33q-36 21 -65 61q-13 13 -26 13
q-40 0 -109 -130l-50 41q83 164 160 164q19 0 33 -12l2 -3q251 106 394 279h-548v63h309q-16 32 -34 60t-39 54z" />
    <glyph glyph-name="cid1300" unicode="&#x4e50;" 
d="M93 359q21 99 37.5 185t25.5 161q12 -2 24.5 -3t26.5 -2q312 1 511 63l29 -54q-202 -57 -540 -64q-10 -62 -21 -118t-23 -105h255v174h65v-174h324v-63h-324v-314q0 -86 -83 -86h-118l-15 63q29 -3 57 -4t54 -1q40 0 40 44v298h-325zM264 264q-34 -78 -74 -145.5
t-86 -125.5l-55 39q47 55 86.5 119.5t72.5 139.5zM660 297q41 -65 79.5 -134t74.5 -145l-59 -30q-71 157 -151 281z" />
    <glyph glyph-name="cid1301" unicode="&#x4e52;" 
d="M258 256h284v220h-284v-220zM192 687q292 24 480 75l33 -57q-195 -45 -447 -69v-98h508v-62h-159v-220h223v-60h-774v60h136v431zM358 147q-100 -111 -249 -196l-40 53q71 39 131.5 85t109.5 100z" />
    <glyph glyph-name="cid1302" unicode="&#x4e53;" 
d="M263 251h287v220h-287v-220zM199 688q154 13 278.5 30t221.5 41l32 -55q-103 -22 -219 -38.5t-249 -29.5v-104h512v-61h-159v-220h223v-62h-789v62h149v437zM570 182q72 -48 131.5 -94.5t108.5 -93.5l-49 -48q-84 89 -235 194z" />
    <glyph glyph-name="cid1306" unicode="&#x4e59;" 
d="M736 714v-56q-137 -101 -230 -172t-146 -115q-58 -48 -97 -88.5t-61 -74.5q-35 -54 -35 -91q0 -25 22 -45q25 -19 101 -19h354q73 3 101 37q30 40 30 170l61 -18q0 -154 -38 -202q-42 -48 -134 -48h-386q-99 0 -139 32q-40 37 -40 93q0 46 35 103q45 75 172 181
q58 50 137.5 113t181.5 139h-509v61h620z" />
    <glyph glyph-name="cid1306" unicode="&#x2f04;" 
d="M736 714v-56q-137 -101 -230 -172t-146 -115q-58 -48 -97 -88.5t-61 -74.5q-35 -54 -35 -91q0 -25 22 -45q25 -19 101 -19h354q73 3 101 37q30 40 30 170l61 -18q0 -154 -38 -202q-42 -48 -134 -48h-386q-99 0 -139 32q-40 37 -40 93q0 46 35 103q45 75 172 181
q58 50 137.5 113t181.5 139h-509v61h620z" />
    <glyph glyph-name="cid1308" unicode="&#x4e5d;" 
d="M387 767v-192h264v-504q0 -40 44 -40h43q36 0 44 50q3 29 4 61t1 66l61 -18q-5 -61 -8.5 -99t-7.5 -53q-17 -70 -94 -70h-54q-100 0 -100 93v449h-199q-11 -210 -76 -340q-35 -66 -92.5 -119t-137.5 -90l-37 60q156 74 218 198q51 114 61 291h-225v65h226v192h65z" />
    <glyph glyph-name="cid1311" unicode="&#x4e60;" 
d="M584 294q-94 -58 -209.5 -110t-256.5 -98l-25 58q138 44 256.5 95.5t219.5 113.5zM215 564q56 -41 102.5 -82.5t83.5 -84.5l-43 -44q-69 80 -186 169zM459 22q36 -1 73 -2t73 -1q40 0 60 38q20 37 23 177q3 46 3 150t3 269h-580v60h644q-3 -220 -5.5 -350t-5.5 -173
q-7 -132 -33 -179q-26 -49 -96 -49h-64t-78 -2z" />
    <glyph glyph-name="cid1313" unicode="&#x4e66;" 
d="M426 771v-154h260v-31l-18 -208h126q0 -129 -10.5 -202t-30.5 -96q-18 -19 -54 -28q-15 -2 -29 -4t-28 -2h-59l-17 60q23 0 44.5 -0.5t41.5 -0.5q42 1 57 23q19 21 22 189h-305v-362h-63v362h-315v61h315v177h-264v62h264v154h63zM606 378l17 177h-197v-177h180zM650 768
q100 -51 180 -119l-33 -53q-88 80 -180 124z" />
    <glyph glyph-name="cid1315" unicode="&#x4e70;" 
d="M136 486q100 -39 185 -97l-32 -52q-91 67 -184 104zM218 610q52 -21 96.5 -45.5t85.5 -54.5l-32 -50q-45 34 -88.5 60t-92.5 45zM526 610v-186q-3 -75 -18 -134h329v-62h-350q-5 -10 -10 -20.5t-10 -19.5q195 -89 351 -186l-43 -48q-166 104 -339 186q-4 -6 -8 -10t-7 -9
q-97 -105 -317 -163l-35 56q218 58 307 152q23 28 39 62h-351v62h378q8 31 13.5 65t8.5 69v186h62zM774 715v-38q-11 -41 -24.5 -80.5t-28.5 -77.5l-61 15q15 28 26.5 59t20.5 64h-609v58h676z" />
    <glyph glyph-name="cid1316" unicode="&#x4e71;" 
d="M231 516v137q-37 -3 -75 -5t-79 -2l-19 58q218 0 365 46l31 -54q-68 -25 -158 -36v-144h182v-60h-182v-151h149v-340h-63v42h-235v-42h-65v340h149v151h-188v60h188zM382 69v178h-235v-178h235zM614 -30q-80 0 -80 86v700h63v-687q0 -40 35 -40h94q28 0 40 21
q15 26 20 149l61 -19q-10 -150 -36 -182q-24 -28 -73 -28h-124z" />
    <glyph glyph-name="cid1317" unicode="&#x4e73;" 
d="M619 -30q-77 0 -77 92v694h63v-680q0 -47 34 -47h92q26 0 39 21q14 26 19 148l60 -20q-8 -147 -35 -180q-23 -28 -71 -28h-124zM479 206q-38 -10 -78.5 -19.5t-82.5 -16.5v-133q0 -76 -78 -76h-94l-18 61q55 -4 87 -4q39 0 39 38v103q-102 -18 -212 -31l-9 61
q59 7 114.5 14.5t106.5 16.5v95q23 16 50 35.5t58 42.5h-289v58h377v-47q-29 -26 -61.5 -53t-70.5 -57v-62q44 9 84.5 17.5t76.5 17.5v-61zM483 652q-27 -99 -70 -169l-55 20q20 32 36.5 73t30.5 91zM260 642q30 -68 48 -127l-54 -20q-12 34 -24 67.5t-26 66.5zM104 632
q29 -57 52 -133l-55 -15q-23 69 -53 129zM489 711q-166 -44 -434 -44l-18 53q128 0 233 11t189 31z" />
    <glyph glyph-name="cid1318" unicode="&#x4e7e;" 
d="M206 684v83h64v-83h160v-58h-160v-75h132v-319h-132v-80h162v-57h-162v-141h-64v141h-169v57h169v80h-129v319h129v75h-156v58h156zM342 367h-206v-81h206v81zM342 418v80h-206v-80h206zM535 590q-17 -29 -34 -55.5t-36 -49.5l-42 49q75 90 120 235l60 -13
q-9 -28 -19 -54t-21 -50h274v-62h-302zM790 457v-56q-54 -55 -94.5 -102t-69.5 -86q-27 -33 -45.5 -58t-29.5 -45q-17 -31 -17 -49q0 -34 43 -34h143q28 0 44 23q13 20 20 145l57 -20q-13 -148 -38 -175q-25 -28 -83 -31h-156q-98 0 -98 81q0 27 21 61q9 20 31 51.5t54 72.5
q26 36 60 77t74 84h-233v61h317z" />
    <glyph glyph-name="cid1319" unicode="&#x4e86;" 
d="M424 473q134 76 258 181h-583v61h670v-61q-62 -56 -131.5 -108.5t-147.5 -104.5v-396q0 -83 -83 -83t-142 4l-16 62q33 -2 68 -4t71 -2t36 35v416z" />
    <glyph glyph-name="cid1320" unicode="&#x4e88;" 
d="M307 625q41 -27 78.5 -55t71.5 -54q91 68 165 155h-465v61h546v-52q-44 -60 -94.5 -109.5t-106.5 -91.5q8 -6 14 -12l11 -11h280v-55q-33 -52 -72 -98.5t-85 -85.5l-51 44q33 27 66.5 60.5t65.5 73.5h-248v-354q0 -82 -79 -82h-128l-14 63q31 -3 61 -4t58 -1q38 0 38 41
v337h-346v61h366q-37 30 -80 61.5t-96 63.5z" />
    <glyph glyph-name="cid1322" unicode="&#x4e8b;" 
d="M412 608v55h-348v54h348v53h63v-53h348v-54h-348v-55h263v-173h-263v-55h276v-120h96v-52h-96v-116h-276v-58q0 -75 -79 -75h-109l-13 59q26 -2 52 -3t49 -1q37 0 37 34v44h-291v51h291v65h-372v52h372v68h-291v52h291v55h-263v173h263zM674 558h-199v-75h199v75z
M412 558h-199v-75h199v75zM475 260h213v68h-213v-68zM475 208v-65h213v65h-213z" />
    <glyph glyph-name="cid1323" unicode="&#x4e8c;" 
d="M128 669h630v-62h-630v62zM47 112h791v-65h-791v65z" />
    <glyph glyph-name="cid1323" unicode="&#x2f06;" 
d="M128 669h630v-62h-630v62zM47 112h791v-65h-791v65z" />
    <glyph glyph-name="cid1325" unicode="&#x4e8e;" 
d="M774 734v-63h-291v-241h352v-63h-352v-315q0 -87 -90 -87h-138l-13 61q34 -1 66.5 -2.5t63.5 -1.5q47 0 47 46v299h-367v63h367v241h-312v63h667z" />
    <glyph glyph-name="cid1328" unicode="&#x4e92;" 
d="M66 731h754v-63h-467l-36 -146h382l-71 -474h214v-61h-793v61h516l26 156h-417l114 464h-222v63zM600 264l31 198h-330l-49 -198h348z" />
    <glyph glyph-name="cid1330" unicode="&#x4e94;" 
d="M128 436h202l46 219h-293v61h721v-61h-365l-46 -219h299v-379h145v-64h-788v64h202l66 317h-189v62zM313 57h315v317h-248z" />
    <glyph glyph-name="cid1331" unicode="&#x4e95;" 
d="M260 598v167h64v-167h238v168h66v-168h175v-63h-175v-211h213v-61h-213v-303h-66v303h-252q-14 -76 -40 -134q-46 -103 -159 -162l-39 60q105 57 146 148q17 39 25 88h-197v61h208q2 24 3.5 50t2.5 53v108h-177v63h177zM324 427q0 -28 -1.5 -53.5t-3.5 -49.5h243v211
h-238v-108z" />
    <glyph glyph-name="cid1333" unicode="&#x4e9a;" 
d="M808 715v-60h-238v-598h266v-64h-786v64h266v598h-237v60h729zM506 57v598h-127v-598h127zM785 518q-23 -102 -52.5 -190t-65.5 -164l-55 21q65 136 116 346zM152 522q32 -74 60.5 -158.5t52.5 -179.5l-55 -17q-23 88 -51.5 172t-62.5 165z" />
    <glyph glyph-name="cid1334" unicode="&#x4e9b;" 
d="M328 765v-150h131v-60h-131v-165q34 6 69 13t68 14v-60q-194 -41 -415 -68l-15 60q20 2 39.5 4.5t37.5 4.5v320h63v-311q23 2 45 5.5t45 6.5v386h63zM824 641q-55 -29 -118.5 -53.5t-136.5 -43.5v-136q0 -40 30 -40h111q30 0 45 14q19 20 23 105l58 -18
q-10 -115 -37 -139q-23 -22 -77 -22h-142q-75 0 -75 87v370h64v-162q60 17 113.5 40t103.5 49zM732 226v-61h-579v61h579zM831 48v-63h-774v63h774z" />
    <glyph glyph-name="cid1338" unicode="&#x4ea2;" 
d="M422 649q-22 61 -50 112l69 10q12 -26 23.5 -56.5t23.5 -65.5h314v-60h-721v60h341zM651 -30q-75 0 -75 78v372h-270v-74q0 -146 -34 -225q-37 -80 -159 -164l-52 44q114 72 146 133q19 32 28 84t9 128v134h392v-412q0 -38 38 -38h52q21 0 33 21q10 20 19 148l58 -19
q-13 -143 -31 -175q-19 -35 -67 -35h-87z" />
    <glyph glyph-name="cid1339" unicode="&#x4ea4;" 
d="M418 663q-23 52 -53 99l71 12q12 -26 25.5 -53.5t25.5 -57.5h349v-62h-784v62h366zM583 575q74 -59 135.5 -116.5t112.5 -116.5l-47 -48q-44 56 -104.5 115.5t-139.5 123.5zM651 383q-65 -123 -156 -211q145 -103 351 -156l-41 -59q-107 31 -196.5 73t-161.5 99
q-75 -60 -165 -104t-198 -71l-38 58q106 26 192 66t158 94q-50 44 -89.5 94t-70.5 106l54 31q57 -108 154 -190q92 87 149 195zM344 533q-101 -130 -250 -231l-41 55q144 92 244 217z" />
    <glyph glyph-name="cid1342" unicode="&#x4ea7;" 
d="M445 780q11 -23 21.5 -48.5t20.5 -54.5h311v-62h-154q-10 -35 -19.5 -69t-24.5 -65h216v-61h-636v-131q-6 -208 -97 -333l-49 44q78 105 81 289v192h182l-37 134h-162v62h324q-9 26 -20 48t-23 43zM539 481q30 65 43 134h-260l38 -134h179z" />
    <glyph glyph-name="cid1343" unicode="&#x4ea8;" 
d="M711 568v-183h-537v183h537zM651 515h-416v-75h416v75zM441 774q8 -18 17.5 -40t17.5 -45h349v-60h-764v60h350q-19 38 -41 74zM423 188q43 14 92 32t107 41h-518v57h651v-44q-119 -56 -268 -113v-123q0 -79 -76 -79h-123l-18 59q37 -2 65.5 -3t49.5 -1q38 0 38 42v132z
" />
    <glyph glyph-name="cid1345" unicode="&#x4eab;" 
d="M709 580v-179h-530v179h530zM649 526h-410v-70h410v70zM434 770q10 -16 20.5 -35.5t18.5 -41.5h355v-60h-770v60h346q-11 18 -21 34.5t-23 31.5zM427 176v35q42 15 90 35.5t104 43.5h-496v57h622v-46q-56 -26 -120 -52.5t-136 -54.5v-18h357v-58h-357v-82q0 -81 -79 -81
h-126l-16 59q37 -2 66 -3t51 -1q40 0 40 44v64h-389v58h389z" />
    <glyph glyph-name="cid1346" unicode="&#x4eac;" 
d="M726 527v-249h-248v-237q0 -79 -80 -79h-96l-14 62q23 -3 45 -4.5t43 -1.5q39 0 39 40v220h-254v249h565zM662 466h-436v-126h436v126zM433 772q11 -23 21 -47t18 -54h364v-58h-786v58h358q-19 51 -41 90zM634 222q62 -51 113 -100.5t91 -99.5l-47 -47q-74 97 -198 205z
M295 180q-43 -59 -94.5 -110.5t-115.5 -94.5l-39 51q61 42 111.5 90.5t93.5 104.5z" />
    <glyph glyph-name="cid1352" unicode="&#x4eba;" 
d="M475 767q0 -58 -2 -107t-4 -90q73 -360 385 -553l-42 -56q-272 180 -366 479q-80 -289 -376 -480l-39 57q365 225 378 608q1 45 1.5 80t0.5 62h64z" />
    <glyph glyph-name="cid1352" unicode="&#x2f08;" 
d="M475 767q0 -58 -2 -107t-4 -90q73 -360 385 -553l-42 -56q-272 180 -366 479q-80 -289 -376 -480l-39 57q365 225 378 608q1 45 1.5 80t0.5 62h64z" />
    <glyph glyph-name="cid1354" unicode="&#x4ebf;" 
d="M148 454q-23 -30 -48.5 -58.5t-51.5 -57.5l-21 66q74 82 127.5 174t86.5 198l60 -29q-35 -102 -88 -194v-599h-65v500zM788 683v-56q-97 -97 -161.5 -165t-101.5 -111q-81 -92 -111 -157q-25 -53 -25 -86q0 -24 16 -44q17 -19 71 -19h236q42 2 59 32q16 31 16 146l62 -17
q0 -138 -27 -180q-26 -42 -90 -42h-267q-76 0 -108 30q-33 39 -33 94q0 42 26 99q34 73 121 173q42 48 96.5 109t126.5 133h-353v61h447z" />
    <glyph glyph-name="cid1355" unicode="&#x4ec0;" 
d="M156 459q-24 -33 -51 -65t-57 -63l-21 66q147 165 211 374l59 -28q-15 -49 -35 -94t-44 -87v-608h-62v505zM594 768v-292h252v-64h-252v-457h-65v457h-240v64h240v292h65z" />
    <glyph glyph-name="cid1356" unicode="&#x4ec1;" 
d="M798 625v-63h-468v63h468zM846 111v-61h-567v61h567zM148 450q-23 -30 -47.5 -58.5t-51.5 -57.5l-19 67q73 82 126 174t86 198l60 -28q-18 -52 -40 -100.5t-48 -94.5v-593h-66v493z" />
    <glyph glyph-name="cid1360" unicode="&#x4ec5;" 
d="M287 745q-16 -49 -35.5 -95.5t-42.5 -89.5v-606h-64v502q-21 -30 -44.5 -58.5t-48.5 -55.5l-21 65q137 161 197 366zM810 -45q-142 99 -235 210q-51 -65 -114 -117t-138 -93l-43 52q154 83 255 211q-144 194 -165 434h-46v60h458v-56q-44 -259 -168 -440
q47 -59 107 -110.5t133 -99.5zM571 268q55 81 91 176t57 208h-287q16 -214 139 -384z" />
    <glyph glyph-name="cid1362" unicode="&#x4ec7;" 
d="M297 736q-18 -52 -39 -99.5t-48 -94.5v-587h-63v492q-23 -30 -47 -59t-51 -55l-19 66q143 159 209 364zM488 759v-183h203v-508q0 -42 35 -42h27q23 0 29 42q3 26 4.5 54t1.5 58l61 -17q-11 -110 -18 -134q-13 -62 -77 -62h-36q-90 0 -90 91v456h-140q-8 -377 -187 -555
l-50 44q169 161 175 511h-125v62h125v183h62z" />
    <glyph glyph-name="cid1365" unicode="&#x4ecb;" 
d="M622 470v-508h-64v508h64zM323 468v-163q-3 -240 -159 -351l-46 40q141 99 142 311v163h63zM467 763q163 -195 379 -305l-33 -57q-216 115 -370 303q-138 -178 -369 -311l-30 57q228 128 376 313h47z" />
    <glyph glyph-name="cid1366" unicode="&#x4ecd;" 
d="M297 666v62h429v-31q-8 -63 -19.5 -125.5t-27.5 -126.5h145v-29q-4 -122 -9 -200.5t-11 -118.5q-14 -78 -42 -106q-31 -28 -90 -28h-104l-19 63q30 -1 55 -2.5t48 -1.5q47 0 68 20q15 21 26 81q4 28 7.5 94.5t8.5 171.5h-157q17 71 31 141t24 136h-184v-165
q-4 -366 -190 -539l-53 46q178 156 179 493v165h-115zM270 748q-12 -44 -28 -86.5t-36 -82.5v-625h-64v512q-21 -33 -45 -65t-50 -63l-22 67q131 162 190 369z" />
    <glyph glyph-name="cid1367" unicode="&#x4ece;" 
d="M291 762q0 -104 -4.5 -193t-16.5 -166q52 -55 95.5 -110t79.5 -109l-48 -50q-27 48 -61.5 96t-76.5 100q-22 -113 -67.5 -204t-118.5 -164l-43 55q62 66 103.5 146t60.5 179q16 82 24.5 187t8.5 233h64zM638 763q0 -67 -3 -128t-7 -117q32 -161 89 -284.5t138 -215.5
l-46 -55q-131 162 -201 397l-3 -27q-42 -225 -195 -375l-45 54q133 130 175 327q16 84 24.5 189t8.5 235h65z" />
    <glyph glyph-name="cid1369" unicode="&#x4ed3;" 
d="M467 765q82 -101 177 -179t205 -135l-31 -57q-222 121 -375 314q-142 -184 -376 -318l-33 58q231 127 386 317h47zM286 392v-312q0 -50 49 -50h270q75 0 94 27q19 28 27 116l60 -19q-11 -128 -46 -160q-31 -24 -119 -24h-312q-89 0 -89 88v392h440v-205q0 -83 -76 -86
q-33 0 -64.5 0.5t-62.5 1.5l-18 61q33 -2 64 -3.5t59 -1.5q35 0 35 48v127h-311z" />
    <glyph glyph-name="cid1370" unicode="&#x4ed4;" 
d="M549 394v128q85 65 163 155h-355v57h430v-57q-37 -48 -80 -92.5t-93 -85.5v-105h239v-62h-239v-282q0 -92 -91 -92h-98l-15 59q38 -3 88 -3q51 0 51 55v263h-263v62h263zM147 451q-43 -56 -98 -112l-20 67q147 164 213 368l59 -27q-17 -54 -40 -102.5t-51 -97.5v-592h-63
v496z" />
    <glyph glyph-name="cid1371" unicode="&#x4ed5;" 
d="M300 742q-17 -53 -40 -101.5t-50 -93.5v-593h-63v498q-44 -58 -99 -113l-19 66q73 79 125.5 170t85.5 195zM523 507v262h66v-262h257v-61h-257v-398h223v-63h-510v63h221v398h-257v61h257z" />
    <glyph glyph-name="cid1373" unicode="&#x4ed7;" 
d="M285 743q-31 -91 -75 -178v-611h-63v506q-45 -61 -95 -118l-20 63q130 158 194 366zM594 617v152h66v-152h178v-63h-178q-7 -231 -87 -374q110 -104 282 -167l-32 -58q-174 64 -285 173q-90 -109 -249 -173l-34 55q158 62 237 164q-110 129 -148 305l56 19
q35 -158 126 -268q32 65 49 145.5t19 178.5h-305v63h305z" />
    <glyph glyph-name="cid1374" unicode="&#x4ed8;" 
d="M294 747q-15 -46 -33 -89.5t-39 -83.5v-620h-64v514q-24 -37 -51.5 -69t-57.5 -66l-19 68q142 164 205 375zM652 576v191h65v-191h127v-62h-127v-463q0 -91 -85 -91h-128l-13 64q31 -3 60.5 -4.5t58.5 -1.5q42 0 42 49v447h-339v62h339zM395 417q51 -60 89.5 -112.5
t65.5 -96.5l-54 -38q-28 49 -66.5 102t-87.5 112z" />
    <glyph glyph-name="cid1375" unicode="&#x4ed9;" 
d="M300 748q-17 -52 -40 -101t-50 -96v-597h-63v499q-23 -29 -47 -57t-51 -56l-19 68q73 80 125.5 172t85.5 198zM606 765v-692h141v531h65v-645h-65v53h-354v-53h-62v644h62v-530h149v692h64z" />
    <glyph glyph-name="cid1380" unicode="&#x4ee3;" 
d="M818 495l-293 -37q3 -43 9 -79t12 -67q31 -138 88 -216q52 -69 98 -71q37 2 54 169l56 -32q-17 -111 -45 -162q-24 -39 -62 -41q-63 0 -135 84q-73 91 -111 244q-10 33 -16 73.5t-11 89.5l-192 -25l-10 61l197 25q-10 113 -11 259h66q0 -72 1.5 -133.5t5.5 -116.5l289 36
zM149 452q-23 -29 -48 -58t-52 -57l-19 66q144 160 211 368l60 -28q-36 -102 -86 -190v-599h-66v498zM608 763q41 -32 75.5 -67t62.5 -67l-45 -43q-24 32 -57.5 66.5t-75.5 70.5z" />
    <glyph glyph-name="cid1386" unicode="&#x4eec;" 
d="M641 -38l-16 60l86 -3q40 0 40 50v580h-215v62h277v-659q0 -90 -89 -90h-83zM410 768q60 -78 96 -138l-50 -36q-35 65 -96 143zM300 747q-17 -54 -40 -102.5t-50 -97.5v-593h-63v497q-23 -29 -46.5 -57.5t-50.5 -55.5l-20 65q74 81 126.5 173t85.5 197zM381 617v-661h-62
v661h62z" />
    <glyph glyph-name="cid1387" unicode="&#x4ef0;" 
d="M284 131q22 9 22 33v520q110 31 174 74l37 -52q-28 -17 -66 -33.5t-87 -31.5v-485q36 12 70.5 25.5t67.5 28.5l12 -60q-46 -19 -99 -37.5t-115 -38.5zM140 464q-18 -33 -40.5 -64.5t-46.5 -61.5l-21 67q118 160 171 366l57 -26q-12 -43 -27.5 -84t-31.5 -81v-623h-61v507
zM668 65l-16 63l57 -3q38 0 38 42v478h-133v-686h-63v746h257v-550q0 -90 -78 -90h-62z" />
    <glyph glyph-name="cid1388" unicode="&#x4ef2;" 
d="M289 747q-34 -102 -82 -192v-601h-62v502q-43 -60 -96 -116l-22 67q138 159 203 367zM591 765v-157h220v-400h-61v44h-159v-297h-66v297h-157v-44h-62v400h219v157h66zM525 312v234h-157v-234h157zM750 312v234h-159v-234h159z" />
    <glyph glyph-name="cid1391" unicode="&#x4ef6;" 
d="M293 746q-34 -105 -88 -200v-591h-64v494q-40 -56 -92 -111l-20 67q139 158 203 368zM444 708q-6 -33 -13 -65t-16 -62h131v185h62v-185h205v-62h-205v-214h238v-61h-238v-285h-62v285h-261v61h261v214h-151q-33 -85 -83 -157l-41 54q81 121 110 299z" />
    <glyph glyph-name="cid1392" unicode="&#x4ef7;" 
d="M148 460q-21 -31 -44.5 -60.5t-49.5 -57.5l-21 66q130 158 191 360l59 -28q-15 -44 -31.5 -86.5t-37.5 -83.5v-612h-66v502zM690 458v-496h-62v496h62zM461 456v-134q-3 -252 -130 -368l-48 40q114 101 117 328v134h61zM570 763q40 -88 112 -165.5t174 -146.5l-36 -54
q-189 125 -279 306q-105 -203 -267 -314l-36 53q178 123 275 321h57z" />
    <glyph glyph-name="cid1394" unicode="&#x4efd;" 
d="M342 359v63h392q0 -282 -13 -350q-11 -104 -107 -104q-16 0 -39.5 0.5t-56.5 1.5l-15 61q31 -1 54.5 -2t45.5 -1q50 0 57 70q8 41 12 261h-156q-23 -147 -62 -230q-47 -94 -142 -170l-41 53q85 67 125 144q39 79 57 203h-111zM297 743q-18 -52 -39 -98.5t-48 -92.5v-598
h-64v499q-45 -60 -97 -111l-19 66q143 157 208 361zM491 736q-78 -227 -203 -346l-50 41q128 122 194 328zM642 770q58 -193 207 -318l-44 -49q-157 131 -217 336z" />
    <glyph glyph-name="cid1395" unicode="&#x4eff;" 
d="M295 744q-16 -47 -34.5 -91t-41.5 -86v-613h-63v510q-23 -33 -49 -64t-54 -61l-21 68q69 80 120 170.5t83 193.5zM296 568v62h244q-12 36 -25 69t-27 62l69 11q13 -30 24.5 -66.5t22.5 -75.5h233v-62h-345v-80q0 -18 -0.5 -36t-1.5 -36h288q-1 -282 -20 -366
q-24 -84 -109 -88q-29 0 -62.5 1.5t-70.5 3.5l-18 57q42 -2 77 -3.5t66 -1.5q54 5 64 67q4 31 5.5 98.5t3.5 171.5h-230q-28 -263 -164 -398l-50 44q157 152 160 486v80h-134z" />
    <glyph glyph-name="cid1396" unicode="&#x4f01;" 
d="M467 766q166 -187 388 -293l-34 -61q-112 57 -205.5 130t-172.5 167q-73 -87 -167 -161t-213 -137l-33 61q233 118 390 294h47zM501 531v-199h242v-62h-242v-217h306v-63h-738v63h134v351h62v-351h171v478h65z" />
    <glyph glyph-name="cid1398" unicode="&#x4f0a;" 
d="M535 266q-8 -40 -18.5 -72t-22.5 -61q-62 -120 -188 -177l-35 55q109 49 165 152q10 22 19 47t14 56h-148v59h157q7 59 7 131h-199v59h199v131h-150v60h438v-191h75v-59h-75v-190h-238zM549 515h159v131h-159v-131zM549 451q0 -33 -2 -64.5t-5 -61.5h166v131h-159v-5z
M148 463q-23 -33 -47.5 -64.5t-51.5 -61.5l-22 67q136 163 197 374l59 -30q-30 -91 -69 -171v-623h-66v509z" />
    <glyph glyph-name="cid1399" unicode="&#x4f0d;" 
d="M459 431l28 222h-170v61h493v-61h-261l-27 -222h222v-381h99v-61h-577v61h145l39 320h-133v61h142zM683 50v320h-169l-41 -320h210zM300 745q-17 -54 -40 -103.5t-50 -95.5v-592h-62v495q-22 -30 -45.5 -57t-49.5 -54l-21 67q144 161 209 368z" />
    <glyph glyph-name="cid1401" unicode="&#x4f0f;" 
d="M153 462q-43 -65 -99 -128l-21 68q132 163 193 369l59 -28q-27 -87 -68 -169v-620h-64v508zM687 744q74 -81 113 -143l-50 -35q-41 66 -112 148zM581 766q0 -100 -4 -244h259v-61h-248q63 -295 266 -458l-44 -48q-193 163 -257 418q-64 -251 -259 -418l-43 48
q222 196 257 458h-223v61h228q2 80 3.5 141t1.5 103h63z" />
    <glyph glyph-name="cid1402" unicode="&#x4f10;" 
d="M153 463q-23 -33 -47 -63t-50 -60l-22 67q130 157 192 361l59 -28q-27 -85 -68 -166v-619h-64v508zM818 522l-314 -50q6 -37 11.5 -70t11.5 -63q10 -35 19.5 -66t19.5 -57q99 96 167 231l53 -29q-79 -154 -193 -262q11 -25 26 -48q54 -79 103 -81q33 5 67 158l57 -36
q-23 -77 -48 -124q-34 -63 -74 -63q-68 0 -135 85q-25 34 -43 69q-109 -86 -240 -134l-36 53q72 26 133.5 60t114.5 77q-13 29 -23.5 60.5t-19.5 65.5q-10 35 -18.5 76.5t-13.5 87.5l-166 -26l-11 62l170 26q-5 55 -8.5 116t-3.5 128h66q0 -65 1.5 -123t7.5 -111l309 49z
M628 767q26 -30 50.5 -62.5t49.5 -67.5l-56 -27q-44 72 -97 132z" />
    <glyph glyph-name="cid1403" unicode="&#x4f11;" 
d="M148 451q-23 -29 -46.5 -56.5t-48.5 -54.5l-22 67q144 158 209 363l61 -27q-18 -54 -41 -103.5t-50 -94.5v-590h-62v496zM508 589v174h63v-174h230v-61h-183q82 -225 235 -372l-43 -58q-142 160 -235 430h-4v-573h-63v573h-4q-86 -275 -226 -435l-37 59q140 140 219 376
h-160v61h208z" />
    <glyph glyph-name="cid1407" unicode="&#x4f1a;" 
d="M467 768q169 -190 388 -297l-34 -63q-221 116 -378 304q-141 -175 -380 -304l-33 62q234 119 390 298h47zM662 496v-60h-435v60h435zM801 317v-62h-417q-32 -62 -70.5 -116t-84.5 -102q108 6 210.5 15.5t202.5 23.5q-23 30 -47.5 60t-52.5 60l51 32q120 -137 185 -235
l-53 -37q-23 37 -49 73q-104 -17 -234 -30.5t-290 -21.5l-18 55q24 7 33 18q87 99 143 205h-222v62h713z" />
    <glyph glyph-name="cid1410" unicode="&#x4f1f;" 
d="M514 665v100h65v-100h232v-59h-232v-111h195v-60h-195v-110h248q0 -195 -29 -235q-29 -42 -102 -44h-42l-16 58h40q55 2 72 29q12 27 15 133h-186v-311h-65v311h-235v59h235v110h-174v60h174v111h-208v59h208zM148 452q-23 -29 -47.5 -57t-51.5 -56l-19 68
q144 158 211 364l60 -28q-35 -103 -89 -196v-593h-64v498z" />
    <glyph glyph-name="cid1411" unicode="&#x4f20;" 
d="M148 450q-43 -58 -95 -112l-21 67q140 157 206 364l60 -29q-34 -103 -86 -194v-592h-64v496zM483 655l28 114l61 -6q-7 -28 -13.5 -55t-11.5 -53h267v-63h-284q-13 -52 -29 -102h350v-62h-371q-10 -29 -21.5 -57t-21.5 -55h365v-55q-58 -95 -179 -187q62 -33 121 -71
l-37 -55q-162 112 -333 175l34 50q41 -16 80.5 -33.5t79.5 -34.5q104 71 165 151h-379q16 42 33 84.5t33 87.5h-149v62h168q8 26 15 51t14 51h-158v63h173z" />
    <glyph glyph-name="cid1413" unicode="&#x4f24;" 
d="M297 749q-34 -103 -87 -195v-600h-64v499q-23 -29 -46.5 -57.5t-50.5 -56.5l-22 67q73 82 125.5 173.5t85.5 199.5zM503 771q-14 -57 -39 -108h377v-62h-409q-23 -39 -53.5 -73.5t-65.5 -67.5l-39 52q123 110 167 267zM566 546v-127h248q0 -150 -3 -241.5t-9 -125.5
q-13 -86 -106 -86q-40 0 -126 3l-17 56q40 -3 73 -3h61q46 0 55 52q8 45 10 282h-189q-26 -274 -227 -406l-49 44q188 120 212 362h-164v63h167v127h64z" />
    <glyph glyph-name="cid1417" unicode="&#x4f2a;" 
d="M154 470q-22 -35 -48.5 -68t-53.5 -64l-21 66q133 159 196 365l57 -26q-28 -87 -66 -164v-625h-64v516zM355 747q61 -75 95 -130l-48 -33q-37 61 -95 130zM570 369q38 -51 68 -93t52 -80l-50 -34q-22 38 -50 80t-63 88q-13 -70 -35 -123q-61 -156 -203 -245l-34 54
q135 90 189 237q16 49 27 107t18 124h-186v62h191q1 27 2.5 53.5t2.5 54.5v114h61v-114q-2 -28 -2.5 -54.5t-1.5 -53.5h248q0 -380 -14 -469q-13 -110 -139 -110q-22 0 -70 3l-16 57q23 -1 42.5 -1.5t35.5 -0.5q77 0 88 75q8 63 11 384h-192q-3 -37 -8 -71.5t-12 -67.5z" />
    <glyph glyph-name="cid1419" unicode="&#x4f2f;" 
d="M161 464q-24 -33 -51 -63.5t-56 -60.5l-21 67q147 157 216 363l58 -28q-17 -49 -37 -93.5t-44 -86.5v-607h-65v509zM800 -41h-64v45h-328v-45h-64v676h143q26 66 39 135l66 -9q-9 -34 -19.5 -65t-23.5 -61h251v-676zM736 65v229h-328v-229h328zM736 353v221h-328v-221
h328z" />
    <glyph glyph-name="cid1420" unicode="&#x4f30;" 
d="M290 744q-34 -106 -87 -202v-588h-64v491q-20 -28 -43 -55.5t-47 -53.5l-20 67q138 162 201 369zM529 591v176h66v-176h253v-61h-253v-185h195v-389h-64v38h-322v-38h-64v389h189v185h-242v61h242zM726 57v227h-322v-227h322z" />
    <glyph glyph-name="cid1422" unicode="&#x4f34;" 
d="M385 717q39 -76 73 -179l-60 -16q-14 45 -33 89t-41 87zM800 719q-16 -59 -36 -108t-45 -92l-59 20q45 76 79 196zM526 479v288h67v-288h231v-62h-231v-146h255v-61h-255v-255h-67v255h-250v61h250v146h-224v62h224zM289 745q-18 -53 -38.5 -102t-46.5 -96v-593h-64v494
q-19 -29 -41 -55.5t-46 -53.5l-22 68q137 161 198 365z" />
    <glyph glyph-name="cid1424" unicode="&#x4f38;" 
d="M378 263h156v129h-156v-129zM378 202v-41h-61v474h217v130h62v-130h218v-474h-60v41h-158v-247h-62v247h-156zM754 263v129h-158v-129h158zM754 577h-158v-128h158v128zM378 577v-128h156v128h-156zM295 745q-17 -53 -39.5 -102t-48.5 -97v-592h-62v497q-21 -29 -44 -56
t-48 -53l-21 66q140 159 204 364z" />
    <glyph glyph-name="cid1425" unicode="&#x4f3a;" 
d="M598 -41l-16 59l129 -1q40 0 40 52v606h-461v60h524v-684q0 -92 -90 -92h-126zM674 567v-58h-380v58h380zM641 412v-281h-319v281h319zM577 354h-192v-165h192v165zM272 745q-28 -89 -65 -168v-623h-62v510q-22 -31 -45 -62t-48 -60l-21 68q125 157 182 363z" />
    <glyph glyph-name="cid1427" unicode="&#x4f3d;" 
d="M138 460q-19 -30 -40 -58.5t-45 -56.5l-21 67q61 80 105 168.5t72 190.5l56 -26q-12 -48 -29.5 -92t-37.5 -88v-609h-60v504zM538 612q0 -209 -4 -336.5t-9 -177.5q-10 -136 -105 -136q-18 0 -58 4l-15 56q19 -1 34.5 -2.5t30.5 -1.5q49 0 56 104q8 69 10 429h-88v-40
q-3 -381 -120 -556l-46 41q105 160 107 515v40h-80v61h80v158h59v-158h148zM814 -19h-57v53h-103v-53h-57v661h217v-661zM757 91v495h-103v-495h103z" />
    <glyph glyph-name="cid1429" unicode="&#x4f46;" 
d="M781 712v-528h-423v528h423zM717 417h-296v-174h296v174zM717 476v177h-296v-177h296zM848 48v-63h-559v63h559zM301 746q-17 -53 -40 -101t-51 -95v-596h-62v498q-43 -56 -98 -112l-20 68q144 158 211 366z" />
    <glyph glyph-name="cid1430" unicode="&#x4f4d;" 
d="M297 746q-17 -53 -38 -100.5t-47 -94.5v-597h-64v499q-42 -56 -95 -113l-21 68q141 160 206 365zM532 625q-9 35 -20 68t-23 63l67 11q10 -31 20.5 -66.5t19.5 -75.5h231v-61h-533v61h238zM583 60q34 89 63.5 200.5t54.5 246.5l61 -15q-48 -246 -113 -432h201v-64h-572
v64h305zM402 497q28 -86 50.5 -183.5t42.5 -208.5l-59 -17q-18 102 -41 198.5t-51 193.5z" />
    <glyph glyph-name="cid1432" unicode="&#x4f4f;" 
d="M535 617q-13 35 -26 67.5t-29 65.5l65 18q16 -39 27 -73.5t21 -65.5l-30 -12h263v-63h-233v-212h209v-62h-209v-233h253v-63h-572v63h252v233h-210v62h210v212h-238v63h247zM295 745q-34 -104 -88 -198v-593h-62v497q-21 -29 -44.5 -56t-48.5 -53l-21 66q142 160 205 364
z" />
    <glyph glyph-name="cid1433" unicode="&#x4f50;" 
d="M479 622q10 34 17.5 69.5t15.5 71.5l62 -9q-6 -35 -14 -67.5t-15 -64.5h277v-64h-296q-15 -51 -33 -98.5t-37 -90.5h340v-61h-167v-262h210v-59h-520v59h249v262h-145q-30 -55 -64.5 -102t-72.5 -90l-42 51q142 158 217 391h-154v64h172zM297 743q-18 -52 -39.5 -100.5
t-48.5 -93.5v-595h-61v499q-23 -29 -47 -57t-51 -56l-20 68q142 159 207 363z" />
    <glyph glyph-name="cid1434" unicode="&#x4f51;" 
d="M301 735q-17 -53 -40 -102t-51 -98v-577h-63v483q-22 -30 -45.5 -57t-48.5 -53l-22 68q144 159 209 364zM781 -41h-61v53h-241v-53h-61v335q-31 -47 -65 -85t-73 -69l-31 57q153 134 223 368h-164v60h181q7 35 14 71.5t12 72.5l64 -8q-6 -37 -12 -70t-15 -66h279v-60
h-293q-30 -105 -72 -188h315v-418zM720 70v248h-241v-248h241z" />
    <glyph glyph-name="cid1435" unicode="&#x4f53;" 
d="M142 433q-19 -30 -42 -58.5t-47 -56.5l-19 64q139 170 201 389l56 -26q-16 -55 -37.5 -107.5t-47.5 -102.5v-580h-64v478zM512 617v152h62v-152h242v-63h-180q60 -217 215 -390l-41 -53q-164 199 -226 443h-10v-355h137v-61h-137v-183h-62v183h-136v61h136v355h-11
q-67 -277 -231 -454l-32 56q149 156 211 398h-172v63h235z" />
    <glyph glyph-name="cid1436" unicode="&#x4f55;" 
d="M847 714v-61h-69v-613q0 -82 -82 -82h-151l-15 63q39 -3 74.5 -4t68.5 -1q40 0 40 41v596h-415v61h549zM608 519v-331h-287v331h287zM546 461h-164v-215h164v215zM286 746q-33 -101 -80 -190v-602h-64v500q-41 -60 -89 -112l-21 68q68 78 117 168.5t79 194.5z" />
    <glyph glyph-name="cid1439" unicode="&#x4f59;" 
d="M467 765q165 -156 388 -249l-33 -58q-222 96 -379 251q-73 -75 -167.5 -138t-214.5 -118l-31 58q236 104 391 254h46zM679 527v-61h-196v-115h322v-61h-322v-234q0 -90 -92 -90h-106l-15 60q26 -1 50.5 -2.5t48.5 -1.5q51 0 51 49v219h-338v61h338v115h-211v61h470z
M310 209q-77 -139 -199 -211l-50 40q66 36 112.5 84.5t80.5 109.5zM630 243q66 -59 116.5 -111.5t85.5 -97.5l-54 -38q-35 49 -84.5 102.5t-112.5 113.5z" />
    <glyph glyph-name="cid1441" unicode="&#x4f5b;" 
d="M280 747q-16 -54 -36 -102t-45 -95v-596h-62v495q-38 -56 -84 -109l-21 65q131 165 192 369zM324 314h90q4 28 5.5 57.5t3.5 59.5h-82zM484 431q-1 -31 -3.5 -60t-5.5 -57h105v117h-96zM641 314h186q0 -174 -17 -219q-21 -48 -86 -50q-13 0 -23 0.5t-21 0.5l-15 59
q13 -1 25 -3t23 -2q39 0 45 39q8 31 8 117h-125v-301h-61v301h-113q-11 -69 -33 -124q-46 -115 -154 -181l-34 55q99 63 139 169q5 20 10.5 40t9.5 41h-143l25 231h136v119h-135v58h135v101h62v-101h95v101h61v-101h157v-233h-157v-117zM485 487h95v119h-95v-119zM641 487
h98v119h-98v-119z" />
    <glyph glyph-name="cid1442" unicode="&#x4f5c;" 
d="M430 580q-62 -127 -142 -224l-46 54q118 139 194 363l63 -14q-10 -30 -20.5 -59.5t-21.5 -56.5h382v-63h-297v-146h259v-62h-259v-150h263v-61h-263v-206h-65v625h-47zM146 452q-44 -55 -93 -106l-22 68q144 154 209 356l61 -27q-18 -53 -41 -101t-50 -93v-594h-64v497z
" />
    <glyph glyph-name="cid1446" unicode="&#x4f60;" 
d="M148 448q-45 -59 -98 -116l-20 68q72 81 124 174t85 198l59 -28q-34 -104 -88 -198v-591h-62v493zM719 416q66 -156 117 -339l-56 -24q-54 194 -119 343zM413 598q-44 -104 -99 -188l-54 35q102 147 147 325l60 -11q-7 -26 -14.5 -51t-16.5 -48h377v-42
q-10 -41 -23 -81.5t-31 -80.5l-60 18q15 27 27.5 58t23.5 66h-337zM408 -39l-13 61q27 -3 54 -4t53 -1q34 0 34 35v471h61v-487q0 -75 -73 -75h-116zM448 393q-24 -93 -54.5 -174t-70.5 -151l-59 22q72 123 127 318z" />
    <glyph glyph-name="cid1451" unicode="&#x4f69;" 
d="M662 594v-54h-114v-92h111v-336q0 -61 -49 -61h-62v-83h-52v428h-61v-355h-48v407h109v92h-116v54h282zM592 97q18 0 18 29v270h-62v-297zM758 733v-478q0 -147 8 -187q10 -40 22 -40q15 0 25 145l47 -21q-13 -111 -29 -154q-17 -36 -37 -36q-47 0 -68 59q-23 60 -23 234
v423h-362v-312q-1 -243 -73 -407l-44 36q29 74 45.5 166t17.5 205v367h471zM258 745q-15 -47 -30.5 -91t-35.5 -88v-611h-57v503q-20 -32 -40.5 -61t-42.5 -59l-20 64q117 162 171 368z" />
    <glyph glyph-name="cid1455" unicode="&#x4f73;" 
d="M525 660v108h66v-108h195v-61h-195v-131h241v-63h-546v63h239v131h-192v61h192zM525 261v112h66v-112h203v-62h-203v-151h255v-63h-575v63h254v151h-203v62h203zM146 449q-22 -29 -45 -55.5t-48 -53.5l-21 68q72 79 123.5 169.5t84.5 193.5l61 -27q-18 -52 -41 -101
t-50 -96v-592h-64v494z" />
    <glyph glyph-name="cid1459" unicode="&#x4f7c;" 
d="M529 654q-24 59 -51 109l65 10q13 -26 25 -56t25 -63h233v-63h-532v63h235zM479 534q-35 -65 -76 -123t-90 -108l-51 37q48 48 88.5 102t75.5 119zM668 563q118 -125 179 -217l-50 -34q-33 50 -77 104.5t-101 115.5zM717 383q-32 -149 -115 -249q48 -37 109.5 -68.5
t137.5 -58.5l-31 -53q-158 53 -258 136q-52 -49 -118.5 -82t-147.5 -53l-35 55q78 18 141.5 48t112.5 74q-101 102 -128 238l56 18q23 -123 112 -213q77 92 102 221zM145 450q-41 -59 -92 -117l-22 68q68 81 115.5 173t79.5 196l59 -28q-31 -99 -78 -188v-600h-62v496z" />
    <glyph glyph-name="cid1461" unicode="&#x4f7f;" 
d="M536 678v90h64v-90h244v-61h-244v-85h208v-251h-211q-13 -121 -47 -185q134 -72 308 -82l-16 -62q-188 13 -327 94q-73 -73 -226 -95l-27 59q135 14 197 73q-39 28 -74 61t-66 74l49 33q29 -37 60.5 -66t66.5 -55q29 59 37 151h-199v251h203v85h-233v61h233zM747 475
h-147v-115q0 -5 -0.5 -10t-0.5 -11h148v136zM535 339q0 6 0.5 11t0.5 10v115h-143v-136h142zM140 448q-21 -30 -43.5 -59t-47.5 -56l-22 68q140 163 200 372l60 -27q-33 -105 -82 -195v-597h-65v494z" />
    <glyph glyph-name="cid1466" unicode="&#x4f8b;" 
d="M571 716v-60h-161q-3 -33 -8 -64.5t-11 -61.5h162v-55q-48 -367 -266 -517l-32 56q107 73 168 205q-28 26 -55.5 48.5t-55.5 38.5q-14 -22 -27.5 -43t-29.5 -41l-31 62q102 134 124 372h-69v60h292zM337 359q56 -33 110 -81q17 45 28.5 93t18.5 101h-118
q-8 -30 -18 -58.5t-21 -54.5zM634 -39l-14 61q48 -4 90 -4q40 0 40 40v708h63v-725q0 -80 -81 -80h-98zM122 436q-17 -26 -34 -49.5t-36 -46.5l-22 67q117 158 171 365l60 -27q-15 -53 -34 -102t-42 -96v-593h-63v482zM668 684v-550h-60v550h60z" />
    <glyph glyph-name="cid1467" unicode="&#x4f8d;" 
d="M593 770v-98h209v-57h-209v-111h251v-59h-582v59h264v111h-209v57h209v98h67zM661 338v68h63v-68h106v-60h-106v-231q0 -81 -80 -81h-121l-12 60q58 -4 111 -4q39 0 39 40v216h-375v60h375zM410 238q69 -83 106 -145l-49 -35q-21 33 -48 70.5t-61 79.5zM147 451
q-43 -62 -95 -119l-22 69q69 80 118 170t79 195l59 -28q-16 -48 -34.5 -93.5t-41.5 -90.5v-600h-63v497z" />
    <glyph glyph-name="cid1468" unicode="&#x4f8f;" 
d="M168 472q-26 -36 -54.5 -69t-59.5 -65l-21 67q147 158 218 366l58 -28q-16 -45 -35 -88t-42 -83v-618h-64v518zM398 563q-13 -28 -27 -54t-30 -50l-55 35q37 58 64.5 120t45.5 131l61 -13q-8 -28 -16 -54t-18 -53h114v145h61v-145h193v-62h-193v-144h235v-62h-187
q62 -151 211 -271l-42 -51q-77 71 -131 150t-86 164v-395h-61v393q-77 -197 -243 -320l-34 55q158 109 230 275h-202v62h249v144h-139z" />
    <glyph glyph-name="cid1472" unicode="&#x4f9b;" 
d="M418 579v186h65v-186h159v186h65v-186h118v-61h-118v-208h142v-62h-571v62h140v208h-115v61h115zM642 310v208h-159v-208h159zM668 216q110 -124 171 -220l-57 -38q-29 52 -71 107.5t-94 118.5zM502 183q-67 -130 -163 -227l-55 39q47 45 87 98.5t73 116.5zM146 451
q-44 -58 -97 -113l-22 67q73 82 125.5 173.5t85.5 195.5l60 -27q-33 -101 -88 -195v-597h-64v496z" />
    <glyph glyph-name="cid1474" unicode="&#x4fa0;" 
d="M133 440q-20 -28 -40 -54t-43 -52l-20 68q130 162 189 370l60 -28q-16 -54 -36.5 -104t-46.5 -98v-588h-63v486zM779 547q-26 -94 -69 -164l-54 20q21 31 37.5 71t31.5 88zM357 560q17 -34 32.5 -74.5t30.5 -85.5l-55 -15q-24 84 -62 157zM517 659v108h62v-108h231v-60
h-231v-113q0 -72 -10 -135h259v-60h-235q76 -160 264 -285l-45 -56q-185 142 -266 310q-69 -212 -276 -311l-39 53q203 88 261 289h-218v60h231q7 29 9 59t3 62v127h-230v60h230z" />
    <glyph glyph-name="cid1478" unicode="&#x4fa7;" 
d="M558 183h-56v484h-172v-489h-56v544h284v-539zM467 142q37 -36 67.5 -71.5t57.5 -72.5l-45 -43q-22 35 -51.5 72t-68.5 78zM443 622v-284q-4 -155 -46 -248q-43 -88 -135 -135l-33 51q89 47 127 124q32 83 35 208v284h52zM126 448q-36 -58 -74 -108l-21 66
q115 159 166 365l56 -25q-14 -52 -31.5 -98.5t-37.5 -90.5v-602h-58v493zM642 -38l-14 60q23 -3 45 -4t44 -1q34 0 34 40v709h62v-725q0 -79 -75 -79h-96zM676 687v-550h-56v550h56z" />
    <glyph glyph-name="cid1486" unicode="&#x4fbf;" 
d="M836 731v-60h-252v-79h210v-340h-211q-8 -93 -54 -158q142 -73 325 -81l-17 -58q-197 10 -346 95q-73 -60 -207 -95l-33 51q61 16 107.5 36t77.5 43q-67 46 -119 106l48 33q49 -53 111 -98q36 52 45 126h-208v340h210v79h-218v60h531zM734 397h-150v-93h150v93zM523 397
h-149v-93h149v93zM523 450v90h-149v-90h149zM584 450h150v90h-150v-90zM138 448q-19 -30 -40 -59t-44 -55l-21 68q125 159 182 366l57 -26q-14 -50 -31 -95.5t-39 -89.5v-601h-64v492z" />
    <glyph glyph-name="cid1487" unicode="&#x4fc3;" 
d="M138 447q-39 -57 -84 -109l-21 67q130 158 189 363l57 -26q-30 -100 -77 -191v-597h-64v493zM786 733v-285h-181v-143h208v-59h-208v-208q24 -3 52.5 -5.5t62.5 -3.5q41 0 74 0.5t57 1.5l-12 -61h-89q-184 0 -251 40q-79 41 -127 138q-19 -58 -44 -107.5t-54 -89.5
l-41 52q98 142 132 380l60 -10q-5 -40 -12.5 -77t-16.5 -72q9 -28 23 -52.5t29 -46.5q41 -48 94 -71v394h-206v285h450zM724 675h-325v-168h325v168z" />
    <glyph glyph-name="cid1488" unicode="&#x4fc4;" 
d="M277 -39l-14 61q20 -3 38.5 -4t37.5 -1q37 0 37 40v165q-30 -11 -60 -20t-61 -18l-16 64q36 8 70 17t67 22v175h-134v61h134v102q-47 -17 -97 -31l-25 58q144 30 217 105l47 -40q-36 -36 -80 -61v-133h132q-2 56 -3.5 116.5t-1.5 126.5h60q0 -68 1 -128t3 -115h203v-61
h-200q2 -71 8 -131t14 -108q59 82 99 193l49 -27q-26 -73 -59 -133t-72 -108q31 -120 76 -126q27 6 55 145l48 -41q-42 -172 -103 -172q-51 0 -92 70q-19 35 -30 73q-29 -26 -58 -47.5t-62 -37.5l-34 53q74 35 135 99q-4 20 -8 39t-6 40q-8 48 -12.5 102t-6.5 117h-135v-154
q46 18 92 41v-63q-22 -12 -45.5 -22t-46.5 -19v-205q0 -79 -78 -79h-83zM128 451q-18 -29 -38 -56.5t-42 -54.5l-21 68q61 80 104 171t72 195l57 -27q-28 -94 -69 -182v-611h-63v497zM709 742q29 -30 55 -61.5t50 -67.5l-46 -36q-25 38 -50.5 71t-50.5 62z" />
    <glyph glyph-name="cid1493" unicode="&#x4fd0;" 
d="M126 450q-17 -27 -36.5 -53t-39.5 -52l-20 69q116 154 168 353l56 -28q-26 -96 -68 -182v-594h-60v487zM392 530v119q-29 -6 -59 -10t-59 -6l-20 55q172 16 288 67l28 -51q-30 -13 -60 -23.5t-60 -17.5v-133h119v-60h-119v-51q30 -34 61 -70.5t63 -79.5l-34 -50
q-53 85 -90 137v-398h-58v415q-55 -141 -153 -256l-26 66q122 128 175 287h-128v60h132zM623 -39l-14 61q27 -3 52.5 -4t49.5 -1q41 0 41 33v712h61v-727q0 -74 -79 -74h-111zM668 681v-544h-59v544h59z" />
    <glyph glyph-name="cid1494" unicode="&#x4fd1;" 
d="M140 451q-40 -61 -87 -118l-22 68q125 157 184 367l57 -26q-14 -49 -31 -94t-38 -87v-607h-63v497zM659 -37l-16 62l74 -3q30 0 30 42v92h-158v-181h-60v181h-160v-197h-61v573h205q-30 20 -65.5 38t-75.5 38l42 40q38 -19 72.5 -38t63.5 -36q38 20 75 45t74 56h-393v58
h481v-53q-40 -39 -86.5 -73.5t-100.5 -65.5q4 -2 6.5 -4.5t7.5 -4.5h196v-482q0 -87 -74 -87h-77zM529 213v101h-160v-101h160zM589 213h158v101h-158v-101zM529 370v105h-160v-105h160zM589 370h158v105h-158v-105z" />
    <glyph glyph-name="cid1495" unicode="&#x4fd7;" 
d="M746 -42h-61v48h-272v-48h-60v355h393v-355zM685 64v190h-272v-190h272zM631 758q57 -41 104 -79.5t87 -77.5l-47 -46q-68 76 -186 161zM495 715q-77 -101 -162 -169l-47 43q48 40 88 80.5t73 82.5zM148 450q-43 -58 -95 -112l-22 66q142 159 207 363l59 -28
q-34 -102 -85 -192v-589h-64v492zM574 592q82 -142 274 -247l-36 -55q-172 98 -259 240q-107 -156 -266 -240l-35 55q183 96 283 247h39z" />
    <glyph glyph-name="cid1496" unicode="&#x4fd8;" 
d="M274 747q-14 -47 -31 -91.5t-37 -87.5v-614h-64v503q-19 -32 -42 -61.5t-47 -58.5l-22 67q128 160 186 369zM550 248v69q26 16 56 36t65 43h-327v60h421v-48q-33 -27 -71 -55.5t-80 -58.5v-46h221v-61h-221v-140q0 -82 -79 -82h-112l-18 61q65 -4 105 -4t40 43v122h-273
v61h273zM797 655q-33 -94 -83 -169l-55 20q43 62 80 164zM546 644q31 -68 51 -129l-55 -20q-23 70 -52 136zM370 636q34 -59 60 -135l-58 -15q-22 69 -58 131zM804 720q-93 -27 -214.5 -41t-276.5 -14l-17 54q290 0 479 51z" />
    <glyph glyph-name="cid1499" unicode="&#x4fdd;" 
d="M289 746q-15 -50 -35.5 -96t-43.5 -89v-607h-64v502q-23 -31 -46.5 -60.5t-50.5 -57.5l-22 67q140 160 202 368zM759 728v-279h-178v-96h256v-63h-193q78 -133 209 -231l-42 -56q-66 58 -120.5 129.5t-97.5 157.5h-12v-335h-63v335h-12q-88 -184 -222 -287l-36 57
q126 85 208 230h-185v63h247v96h-177v279h418zM697 667h-293v-157h293v157z" />
    <glyph glyph-name="cid1502" unicode="&#x4fe1;" 
d="M136 451q-20 -29 -41.5 -57t-45.5 -55l-20 68q129 160 189 369l60 -28q-16 -51 -36 -98.5t-43 -93.5v-602h-63v497zM547 652q-9 26 -21 51t-25 52l61 15q14 -30 24.5 -56t18.5 -50l-33 -12h279v-62h-577v62h273zM775 519v-58h-419v58h419zM775 394v-58h-419v58h419z
M790 -45h-61v48h-329v-48h-61v308h451v-308zM729 63v139h-329v-139h329z" />
    <glyph glyph-name="cid1510" unicode="&#x4fef;" 
d="M457 350q-15 -18 -30 -35t-31 -34l-18 61q93 106 137 246l57 -26q-11 -32 -24.5 -62t-30.5 -60v-483h-60v393zM717 459v114h62v-114h67v-60h-67v-365q0 -77 -78 -77h-83l-13 60q20 -2 38 -3t36 -1q38 0 38 35v351h-147v60h147zM586 772q9 -20 18.5 -43t17.5 -49h214v-60
h-469v-219q-3 -279 -85 -446l-50 43q68 143 74 403v279h250q-9 23 -19 43t-20 39zM604 340q19 -40 37.5 -84t35.5 -92l-50 -26q-18 50 -36 94t-38 83zM136 457q-20 -31 -41.5 -60t-45.5 -57l-20 68q63 80 107.5 171t73.5 195l58 -27q-13 -47 -31 -91.5t-38 -88.5v-613h-63
v503z" />
    <glyph glyph-name="cid1511" unicode="&#x4ff1;" 
d="M156 456q-24 -32 -49.5 -61.5t-53.5 -57.5l-21 67q149 160 216 366l59 -27q-33 -98 -85 -189v-600h-66v502zM762 198h87v-58h-570v58h90v536h393v-536zM699 198v84h-267v-84h267zM699 336v80h-267v-80h267zM699 469v77h-267v-77h267zM699 598v81h-267v-81h267zM519 93
q-78 -82 -190 -142l-40 50q56 28 102.5 61t84.5 70zM653 133q50 -29 94 -63.5t85 -71.5l-42 -47q-42 41 -85.5 76.5t-87.5 65.5z" />
    <glyph glyph-name="cid1515" unicode="&#x4ffe;" 
d="M494 688q12 21 21 41.5t15 43.5l65 -8q-7 -20 -15.5 -39.5t-19.5 -37.5h228v-372h-238q-3 -5 -6 -10.5t-6 -11.5q-45 -66 -146 -106h205v89h64v-89h185v-60h-185v-169h-64v169h-323v60h107l-26 44q86 32 128 84h-149v372h160zM726 472h-137q-3 -53 -16 -100h153v100z
M511 372q7 23 11.5 48.5t6.5 51.5h-134v-100h116zM529 528v103h-134v-103h134zM591 528h135v103h-135v-103zM148 461q-45 -64 -96 -118l-21 64q139 163 199 367l59 -27q-15 -47 -34.5 -93t-42.5 -90v-607h-64v504z" />
    <glyph glyph-name="cid1519" unicode="&#x5012;" 
d="M570 43q-76 -19 -155 -36.5t-164 -31.5l-14 59q37 5 71 11.5t68 12.5v171h-120v59h120v103h63v-103h117v-59h-117v-158q65 15 131 35v-63zM565 732v-61h-155q-21 -67 -39.5 -117t-38.5 -83q40 5 76.5 11t71.5 15q-10 24 -22 47t-24 47l46 31q32 -58 54.5 -106t38.5 -92
l-47 -33l-24 58q-57 -13 -118.5 -22.5t-125.5 -18.5l-16 55q17 1 24 7q35 48 82 201h-87v61h304zM644 -38l-14 62q23 -3 45.5 -4.5t44.5 -1.5q34 0 34 40v705h61v-722q0 -79 -75 -79h-96zM668 687v-549h-59v549h59zM128 459q-33 -59 -75 -117l-22 66q106 160 154 362l57 -26
q-10 -42 -23 -81.5t-29 -78.5v-630h-62v505z" />
    <glyph glyph-name="cid1521" unicode="&#x5018;" 
d="M594 768v-261h218v-462q0 -88 -82 -88h-75l-16 61l70 -2q42 0 42 43v389h-379v-493h-63v552h220v261h65zM674 360v-253h-227v253h227zM617 305h-111v-143h111v143zM814 705q-44 -96 -107 -166l-47 35q60 68 102 158zM384 723q41 -73 72 -157l-55 -24q-16 47 -36 87
t-41 75zM147 449q-43 -56 -94 -111l-22 67q143 159 207 367l60 -28q-34 -103 -88 -197v-593h-63v495z" />
    <glyph glyph-name="cid1523" unicode="&#x501a;" 
d="M528 693q2 13 4 25.5t3 24.5v24h61v-24q-1 -14 -2 -26l-2 -24h226v-58h-241q-3 -6 -5.5 -13.5t-6.5 -13.5q66 -20 127 -44.5t117 -53.5l-35 -54q-60 32 -118.5 59t-118.5 47l-7 -7q-58 -65 -193 -101l-34 54q131 33 180 86q9 9 15 20t13 21h-198v58h215zM849 428v-61h-85
v-337q0 -72 -80 -72h-111l-15 60q29 -2 55 -3t49 -1q39 0 39 32v321h-436v61h584zM597 301v-218h-273v218h273zM537 249h-152v-112h152v112zM141 452q-38 -56 -88 -110l-22 66q133 160 196 363l59 -27q-33 -102 -82 -192v-598h-63v498z" />
    <glyph glyph-name="cid1525" unicode="&#x501f;" 
d="M149 456q-22 -33 -46 -65t-50 -61l-22 66q132 168 191 375l60 -27q-29 -95 -69 -177v-613h-64v502zM413 666v97h63v-97h160v97h63v-97h124v-57h-124v-111h145v-61h-574v61h143v111h-120v57h120zM636 498v111h-160v-111h160zM773 -40h-63v41h-301v-41h-63v408h427v-408z
M710 59v97h-301v-97h301zM710 212v98h-301v-98h301z" />
    <glyph glyph-name="cid1528" unicode="&#x5026;" 
d="M285 748q-17 -51 -37 -98.5t-44 -93.5v-602h-65v497q-20 -29 -43 -57t-47 -55l-20 67q133 161 196 372zM395 750q29 -49 51 -107l-53 -23q-26 63 -54 114zM763 739q-12 -36 -29 -67.5t-37 -58.5l-51 28q20 26 34.5 55.5t26.5 62.5zM502 610q21 77 32 168l62 -9
q-5 -43 -13 -82t-17 -77h228v-56h-245q-8 -24 -16.5 -46t-17.5 -44h317v-56h-148q52 -86 175 -156l-41 -51q-63 44 -111 90v-111q0 -71 -73 -74q-45 0 -86 3l-13 53q19 -1 39 -2t40 -1q32 0 32 37v64h-198v-202q0 -33 32 -33h225q40 0 50 16q9 20 15 76l62 -20
q-8 -90 -32 -112q-22 -18 -79 -18h-265q-70 0 -70 70v237q-26 -27 -52.5 -47.5t-55.5 -40.5l-37 56q104 58 174 166h-150v56h182q11 22 20.5 44.5t17.5 45.5h-179v56h196zM487 408q-16 -26 -31 -49t-33 -45h263q-40 45 -65 94h-134z" />
    <glyph glyph-name="cid1530" unicode="&#x5029;" 
d="M270 747q-30 -101 -72 -186v-607h-63v496q-20 -30 -41.5 -58.5t-44.5 -57.5l-22 69q65 81 110 174t75 199zM524 711v57h64v-57h235v-53h-235v-58h200v-51h-200v-61h260v-52h-582v52h258v61h-194v51h194v58h-230v53h230zM612 -40l-15 57l79 -3q29 0 29 32v53h-294v-144
h-63v425h418v-346q0 -74 -70 -74h-84zM705 148v64h-294v-64h294zM705 261v65h-294v-65h294z" />
    <glyph glyph-name="cid1531" unicode="&#x502a;" 
d="M376 373h353v119h-149v58h149v117h-138v56h197v-407h-128v-248q0 -40 34 -40h45q22 0 32 15q13 21 17 112l61 -18q-10 -123 -33 -148q-24 -22 -65 -22h-77q-78 0 -78 87v262h-92q-4 -75 -16.5 -129t-31.5 -91q-48 -81 -158 -142l-39 50q98 52 138 119q17 32 28.5 80
t15.5 113h-124v386q48 10 91.5 26.5t84.5 38.5l36 -51q-63 -32 -153 -60v-105h146v-59h-146v-119zM137 451q-19 -29 -41.5 -57t-46.5 -56l-20 68q131 159 189 367l60 -27q-15 -50 -33.5 -97t-41.5 -91v-604h-66v497z" />
    <glyph glyph-name="cid1539" unicode="&#x5047;" 
d="M343 187h165v-59h-165v-173h-61v778h243v-260h-182v-110h163v-61h-163v-115zM569 473v59h177v140h-176v61h238v-260h-239zM818 391v-57q-30 -132 -95 -222q32 -32 66 -59t71 -47l-30 -54q-44 23 -80.5 51t-65.5 62q-65 -72 -161 -115l-34 54q47 23 86 50.5t70 62.5h-1
q-61 95 -79 214h-25v60h278zM620 331q14 -96 64 -167q48 70 77 167h-141zM465 531v141h-122v-141h122zM122 446q-17 -28 -34.5 -53.5t-37.5 -50.5l-20 66q108 160 157 366l59 -27q-24 -92 -61 -177v-616h-63v492z" />
    <glyph glyph-name="cid1543" unicode="&#x504f;" 
d="M357 622v-117h398v117h-398zM357 450q-2 -285 -104 -489l-46 42q91 173 94 451v224h233q-10 23 -20.5 42.5t-20.5 39.5l64 10q18 -41 38 -92h217v-228h-455zM137 454q-36 -53 -82 -107l-19 64q63 77 106 165.5t72 189.5l56 -27q-15 -48 -33 -92.5t-38 -88.5v-604h-62v500
zM717 -42l-14 48l37 -2q21 0 21 20v124h-79v-176h-46v176h-75v-176h-47v176h-78v-189h-54v412h433v-360q0 -53 -58 -53h-40zM514 199v121h-78v-121h78zM561 199h75v121h-75v-121zM682 199h79v121h-79v-121z" />
    <glyph glyph-name="cid1546" unicode="&#x505c;" 
d="M274 745q-32 -96 -75 -188v-602h-65v493q-39 -58 -81 -108l-22 67q123 158 183 365zM543 772q7 -15 13.5 -35t13.5 -41h252v-56h-548v56h231q-11 35 -27 66zM754 588v-168h-422v168h422zM691 539h-298v-69h298v69zM824 218h-48v-41h-192v-143q0 -73 -78 -73h-99l-15 63
q24 -2 47 -3.5t45 -1.5q34 0 34 31v127h-194v41h-59v151h559v-151zM762 233v81h-434v-81h434z" />
    <glyph glyph-name="cid1547" unicode="&#x5065;" 
d="M644 396v-70h165v-50h-165v-65h192v-54h-192v-90h-61v90h-147v54h147v65h-119v50h119v70h-112v52h112v71h-147v53h147v71h-112v51h112v69h61v-69h147v-122h58v-53h-58v-123h-147zM644 572h90v71h-90v-71zM644 448h90v71h-90v-71zM420 684v-52q-28 -58 -53.5 -105.5
t-52.5 -86.5h110v-36q-3 -160 -52 -274q41 -45 93 -69q71 -30 221 -34q103 0 165 3l-12 -60h-113q-230 0 -313 51q-20 10 -37.5 24t-33.5 29q-46 -70 -110 -115l-30 54q30 22 55.5 50t44.5 60q-27 40 -48.5 88t-37.5 106l51 21q11 -45 27 -83t37 -71q32 86 37 201h-128v46
q31 45 59.5 93t53.5 100h-110v60h177zM119 448q-16 -26 -32.5 -51t-34.5 -48l-21 67q53 78 91 165t62 186l58 -27q-12 -47 -27.5 -89.5t-33.5 -85.5v-610h-62v493z" />
    <glyph glyph-name="cid1549" unicode="&#x5076;" 
d="M775 733v-340h-191v-71h230v-281q0 -82 -76 -82h-83l-14 58l78 -3q37 0 37 42v211h-179v-118q20 2 37.5 6t34.5 6q-6 16 -11 31.5t-10 30.5l44 14q14 -37 26 -77.5t24 -87.5l-47 -12q-2 13 -5.5 26t-7.5 26q-88 -22 -252 -35l-18 58q38 2 69.5 4t61.5 4v124h-164v-312
h-62v367h227v71h-187v340h438zM713 535h-129v-89h129v89zM524 535h-125v-89h125v89zM524 589v89h-125v-89h125zM584 589h129v89h-129v-89zM148 458q-23 -31 -47 -59.5t-51 -56.5l-20 66q141 159 202 364l61 -28q-34 -103 -84 -190v-600h-61v504z" />
    <glyph glyph-name="cid1550" unicode="&#x5077;" 
d="M402 -41l-14 54l60 -2q27 0 27 30v97h-118v-181h-56v484h228v-411q0 -71 -62 -71h-65zM475 188v75h-118v-75h118zM475 312v77h-118v-77h118zM149 468q-42 -66 -99 -128l-20 66q131 159 192 364l57 -26q-27 -89 -69 -170v-620h-61v514zM687 570v-55h-291v55h291zM654 424
v-328h-54v328h54zM630 -39l-12 55q21 -2 40 -3t39 -1q33 0 33 35v410h56v-423q0 -73 -69 -73h-87zM570 763q135 -144 279 -229l-34 -51q-147 91 -269 221q-131 -132 -280 -222l-31 50q79 49 151 106.5t136 124.5h48z" />
    <glyph glyph-name="cid1557" unicode="&#x508d;" 
d="M522 692q-12 40 -28 67l64 11q7 -16 14 -36t12 -42h221v-57h-96q-11 -51 -34 -104h143v-135h-63v77h-407v-77h-62v135h145q-9 30 -17.5 55.5t-17.5 48.5h-93v57h219zM614 531q11 25 20 51t15 53h-190q9 -24 16 -49.5t15 -54.5h124zM529 347q-5 23 -12 44t-15 40l63 12
q15 -43 28 -96h241v-58h-321q-2 -23 -5 -44t-8 -41h263q-1 -189 -42 -221q-21 -13 -53 -20q-15 -2 -30 -3t-30 -1h-46l-17 57h74q43 0 60 14q21 13 24 117h-223q-57 -126 -198 -196l-34 56q189 86 202 282h-186v58h265zM134 448q-39 -56 -85 -109l-20 68q132 165 189 369
l60 -29q-16 -51 -36 -99t-43 -94v-600h-65v494z" />
    <glyph glyph-name="cid1561" unicode="&#x50a8;" 
d="M119 449l-32 -50t-34 -49l-22 69q52 77 90.5 163t61.5 186l57 -26q-12 -46 -27 -89t-32 -83v-615h-62v494zM301 733q79 -69 131 -132l-47 -47q-50 65 -127 136zM376 493v-376q19 18 37 38.5t36 43.5l16 -62q-33 -43 -69.5 -80.5t-73.5 -69.5l-25 58q19 16 19 35v353h-100
v60h160zM582 664v103h59v-103h99v-52q14 26 26 53.5t24 55.5l54 -28q-45 -109 -105 -198h102v-59h-145q-36 -45 -79 -83h181v-396h-60v37h-166v-37h-59v317q-17 -9 -32.5 -17.5t-32.5 -15.5l-32 50q116 53 202 145h-161v59h125v114h-106v55h106zM667 495q39 55 72 114h-98
v-114h26zM572 50h166v98h-166v-98zM738 297h-166v-97h166v97z" />
    <glyph glyph-name="cid1563" unicode="&#x50ac;" 
d="M150 453q-43 -65 -95 -129l-22 71q126 162 184 371l59 -28q-13 -45 -29 -87.5t-35 -84.5v-608h-62v495zM731 724h61v-174h-464v173h60v-117h141v157h64v-157h138v118zM412 190h169v76h-169v-76zM412 58h169v81h-169v-81zM412 -40h-59v341q-36 -54 -75 -93l-40 46
q97 102 158 265l58 -13q-6 -16 -12.5 -31.5t-14.5 -31.5h162q-10 19 -20.5 37t-22.5 34l59 10q12 -18 22.5 -38t20.5 -43h173v-53h-180v-73h153v-51h-153v-76h156v-51h-156v-81h201v-56h-430v-42zM412 390v-73h169v73h-169z" />
    <glyph glyph-name="cid1576" unicode="&#x50f5;" 
d="M238 748q-11 -39 -23 -78t-28 -76v-640h-63v506q-18 -30 -36.5 -58.5t-38.5 -54.5l-20 68q103 160 151 363zM826 739v-48h-564v48h564zM762 649v-220h-436v220h436zM702 522h-129v-50h129v50zM516 522h-129v-50h129v50zM516 558v50h-129v-50h129zM573 558h129v50h-129
v-50zM837 389v-47h-586v47h586zM780 298v-224h-469v224h469zM720 167h-147v-50h147v50zM517 167h-145v-50h145v50zM517 204v51h-145v-51h145zM573 204h147v51h-147v-51zM847 30v-49h-609v49h609z" />
    <glyph glyph-name="cid1577" unicode="&#x50fb;" 
d="M260 745q-25 -92 -66 -180v-610h-59v502q-20 -31 -40.5 -60t-42.5 -57l-21 66q58 80 101.5 170.5t70.5 194.5zM344 660v-165h117v165h-117zM343 442q-6 -119 -30.5 -221t-68.5 -191l-42 39q86 171 87 438v207h228v-272h-174zM530 -18h-52v48h-90v-50h-52v346h194v-344z
M478 82v193h-90v-193h90zM546 368v56h172q28 75 41 159l54 -7q-8 -42 -18 -79.5t-25 -72.5h78v-56h-122v-115h102v-56h-102v-235h-59v235h-101v56h101v115h-121zM691 767q9 -23 18 -49t17 -55h112v-56h-289v56h119q-9 26 -18 49t-21 45zM620 581q14 -29 26.5 -59t24.5 -64
l-46 -20q-13 36 -26 66.5t-27 57.5z" />
    <glyph glyph-name="cid1585" unicode="&#x5141;" 
d="M297 401q-43 -2 -88 -4t-88 -4l-12 58q96 43 246 319l60 -20q-101 -184 -202 -296q118 5 226.5 12t212.5 16q-26 44 -53 83t-54 76l55 27q52 -68 99.5 -142.5t90.5 -156.5l-59 -30q-12 23 -23.5 45t-23.5 43q-30 -2 -59.5 -5t-59.5 -5v-346q0 -37 40 -37h93q34 0 50 19
q20 23 27 143l60 -21q-10 -141 -41 -174q-30 -28 -85 -28h-125q-82 0 -82 85v354q-35 -2 -69.5 -4t-70.5 -4q-15 -188 -67 -279q-65 -103 -211 -176l-40 54q135 64 191 151q50 80 62 247z" />
    <glyph glyph-name="cid1586" unicode="&#x5143;" 
d="M746 719v-62h-613v62h613zM823 458v-62h-246v-331q0 -38 40 -38h97q31 0 41 20q9 13 14 48.5t7 95.5l58 -19q-9 -145 -35 -176q-23 -27 -71 -27h-129q-83 0 -83 83v344h-159v-14q-4 -172 -71 -277q-67 -98 -214 -153l-35 54q143 53 201 141q55 93 56 235v14h-228v62h757z
" />
    <glyph glyph-name="cid1587" unicode="&#x5144;" 
d="M708 723v-357h-145v-284q0 -46 42 -46h102q25 0 43 11q24 15 30 151l57 -20q-10 -146 -35 -174q-23 -24 -82 -26h-136q-39 0 -62 25q-22 25 -22 62v301h-132q-5 -87 -22.5 -148.5t-44.5 -101.5q-69 -95 -220 -161l-39 50q140 57 200 137q53 72 66 224h-145v357h545z
M644 660h-417v-233h417v233z" />
    <glyph glyph-name="cid1588" unicode="&#x5145;" 
d="M441 774q12 -25 23 -53t23 -58h322v-60h-410q-88 -150 -153 -214q98 5 195.5 14t194.5 22q-34 49 -74 98l52 32q55 -70 97 -130t71 -112l-51 -37q-13 23 -28 47l-30 48l-120 -14v-290q0 -37 34 -37h111q27 0 41 12q22 19 29 131l60 -19q-13 -133 -39 -162
q-27 -20 -76 -24h-144q-79 0 -79 89v294q-33 -2 -65.5 -5t-65.5 -6q-14 -156 -59 -231q-57 -87 -186 -150l-41 51q118 54 169 128q42 62 52 196q-33 -2 -67.5 -4.5t-68.5 -4.5l-16 59q6 1 9 3t6 3q67 38 175 213h-254v60h344q-23 56 -50 100z" />
    <glyph glyph-name="cid1589" unicode="&#x5146;" 
d="M586 -22q-90 0 -90 91v694h65v-355q85 -32 131 -59q21 -10 49 -27t62 -41l-27 -62q-57 47 -120 79q-46 27 -95 46v-262q0 -44 44 -44h116q33 0 45 16q19 19 23 117l60 -20q-10 -123 -38 -150q-25 -23 -79 -23h-146zM139 667q43 -53 76 -97t55 -84l-52 -36q-24 43 -57 88
t-74 96zM385 761v-299q-4 -201 -75 -323q-69 -111 -228 -176l-35 58q77 30 130 71t84 93q34 62 48 148q-51 -33 -109.5 -62.5t-122.5 -59.5l-20 65q72 27 137 58.5t123 66.5q2 16 2.5 31t1.5 30v299h64zM786 650q-54 -121 -130 -210l-52 39q73 82 127 199z" />
    <glyph glyph-name="cid1590" unicode="&#x5148;" 
d="M210 572q-17 -37 -36.5 -68t-40.5 -61l-61 38q98 127 140 275l65 -13l-19 -57t-20 -53h181v134h64v-134h293v-61h-293v-168h354v-61h-242v-260q0 -53 44 -53h84q22 0 35 15q17 19 22 146l61 -19q-10 -146 -36 -178q-23 -25 -65 -26h-120q-91 0 -91 103v272h-164
q-13 -156 -68 -234q-61 -90 -209 -154l-43 57q134 52 192 128q49 67 61 203h-244v61h365v168h-209z" />
    <glyph glyph-name="cid1591" unicode="&#x5149;" 
d="M476 767v-329h355v-62h-255v-297q0 -41 38 -41h107q30 0 42 20q17 23 22 137l61 -20q-9 -139 -36 -170q-23 -26 -78 -26h-138q-81 0 -81 86v311h-150v-7q-4 -167 -73 -266q-66 -93 -217 -145l-36 56q147 51 204 133q54 86 56 222v7h-240v62h354v329h65zM764 696
q-44 -108 -119 -212l-57 30q37 53 66 105.5t51 104.5zM184 716q66 -92 124 -202l-59 -30q-31 58 -61.5 108.5t-63.5 95.5z" />
    <glyph glyph-name="cid1592" unicode="&#x514b;" 
d="M476 770v-94h347v-63h-347v-93h246v-257h-152v-189q0 -40 42 -40h108q22 0 38 9q21 17 26 100l60 -20q-12 -110 -37 -132q-25 -18 -72 -21h-142q-87 0 -87 93v200h-143q-15 -124 -66 -186q-65 -70 -212 -123l-39 52q133 40 191 101q48 50 60 156h-133v257h247v93h-347v63
h347v94h65zM659 459h-431v-137h431v137z" />
    <glyph glyph-name="cid1593" unicode="&#x514d;" 
d="M156 507q-19 -12 -36 -24t-35 -24l-39 48q167 102 274 265l65 -14q-12 -18 -22.5 -34t-23.5 -33h305v-49q-55 -68 -109 -116h217v-270h-203v-180q0 -45 39 -45h143q22 0 33 17q7 11 11 40.5t6 79.5l61 -19q-9 -130 -32 -156q-23 -24 -67 -24h-174q-82 0 -82 93v194h-48
q-4 -12 -9 -24l-10 -24q-72 -154 -332 -253l-40 50q232 85 307 214l17 37h-216v251zM453 526q55 44 109 107h-271q-26 -30 -54 -56.5t-57 -50.5h273zM691 466h-216q-3 -83 -17 -149h233v149zM391 317q18 66 21 149h-195v-149h174z" />
    <glyph glyph-name="cid1601" unicode="&#x2f0a;" 
d="M404 562q-30 56 -66.5 99t-78.5 74l52 33q119 -82 201 -298q126 -319 334 -451l-41 -51q-213 129 -351 483q-5 10 -8 19.5t-7 16.5q-87 -338 -366 -520l-39 55q285 186 370 540z" />
    <glyph glyph-name="cid1603" unicode="&#x516b;" 
d="M358 692q-37 -234 -105 -413.5t-169 -306.5l-40 53q186 252 251 678zM568 736q30 -476 278 -709l-35 -59q-264 239 -303 749z" />
    <glyph glyph-name="cid1603" unicode="&#x2f0b;" 
d="M358 692q-37 -234 -105 -413.5t-169 -306.5l-40 53q186 252 251 678zM568 736q30 -476 278 -709l-35 -59q-264 239 -303 749z" />
    <glyph glyph-name="cid1604" unicode="&#x516c;" 
d="M350 736q-98 -279 -260 -425l-48 43q164 151 249 405zM594 290q52 -72 96 -149t81 -159l-60 -27q-9 23 -19 44.5t-20 40.5q-119 -19 -248.5 -32.5t-275.5 -22.5l-12 62q106 58 268 421l62 -21q-58 -127 -114.5 -226.5t-114.5 -170.5q217 13 407 44q-53 97 -107 176z
M581 766q78 -248 267 -406l-46 -50q-198 165 -276 425z" />
    <glyph glyph-name="cid1605" unicode="&#x516d;" 
d="M593 382q78 -110 136 -204.5t98 -175.5l-57 -40q-85 173 -232 386zM348 353q-46 -129 -107 -223.5t-138 -162.5l-54 47q159 133 238 363zM837 530v-61h-788v61h788zM360 761q54 -37 98.5 -75t81.5 -75l-47 -47q-32 37 -75.5 75.5t-100.5 80.5z" />
    <glyph glyph-name="cid1608" unicode="&#x5171;" 
d="M254 588v184h64v-184h251v181h63v-181h164v-61h-164v-214h206v-62h-790v62h206v214h-161v61h161zM569 313v214h-251v-214h251zM366 175q-56 -61 -124 -116t-149 -102l-45 57q161 89 270 205zM575 218q79 -53 144 -105.5t118 -104.5l-49 -50q-92 100 -259 215z" />
    <glyph glyph-name="cid1609" unicode="&#x5173;" 
d="M275 765q26 -34 52 -72t49 -80l-58 -28q-24 42 -49.5 80t-52.5 71zM669 756q-30 -95 -80 -172h184v-62h-297v-42q-1 -33 -4 -64.5t-8 -58.5h360v-63h-323q65 -179 345 -279l-38 -59q-292 117 -364 321q-24 -76 -68 -133q-89 -117 -295 -183l-34 56q205 66 284 172
q31 46 50 105h-318v63h334q13 59 14 123v42h-298v62h405q27 39 48.5 85.5t41.5 102.5z" />
    <glyph glyph-name="cid1610" unicode="&#x5174;" 
d="M538 368q49 90 89.5 189t73.5 206l64 -21q-77 -226 -160 -374h241v-63h-804v63h496zM158 712q33 -59 64 -124t61 -136l-59 -29q-31 73 -61.5 138t-63.5 123zM373 763q34 -62 64 -130.5t57 -144.5l-58 -29q-29 78 -59.5 145.5t-63.5 130.5zM341 228q-45 -77 -99.5 -143
t-116.5 -122l-52 39q126 107 212 254zM606 260q68 -73 119 -136.5t87 -117.5l-57 -40q-72 115 -202 260z" />
    <glyph glyph-name="cid1611" unicode="&#x5175;" 
d="M261 251h291v220h-291v-220zM197 696q153 10 276.5 26t221.5 37l31 -55q-103 -20 -218.5 -34t-246.5 -26v-112h514v-61h-158v-220h222v-63h-789v63h147v445zM345 131q-51 -52 -115.5 -96.5t-139.5 -83.5l-42 55q149 73 250 167zM577 177q141 -91 235 -179l-49 -49
q-81 87 -228 188z" />
    <glyph glyph-name="cid1612" unicode="&#x5176;" 
d="M212 690v81h65v-81h332v81h66v-81h150v-60h-150v-407h166v-59h-795v59h166v407h-151v60h151zM609 223v102h-332v-102h332zM609 380v99h-332v-99h332zM609 533v97h-332v-97h332zM368 103q-110 -84 -268 -145l-41 52q158 58 263 133zM557 140q74 -26 141.5 -58t129.5 -70
l-36 -54q-64 43 -131 76.5t-136 58.5z" />
    <glyph glyph-name="cid1613" unicode="&#x5177;" 
d="M709 191h128v-59h-267q69 -26 130.5 -56t117.5 -65l-36 -55q-62 40 -125.5 73.5t-129.5 57.5l30 45h-248l47 -40q-103 -80 -250 -137l-38 50q71 27 131 58.5t109 68.5h-259v59h128v543h532v-543zM644 191v83h-402v-83h402zM644 325v82h-402v-82h402zM644 459v83h-402v-83
h402zM644 592v80h-402v-80h402z" />
    <glyph glyph-name="cid1614" unicode="&#x5178;" 
d="M762 237h84v-62h-808v62h87v418h189v119h62v-119h137v119h60v-119h189v-418zM314 237v156h-127v-156h127zM513 237v156h-137v-156h137zM700 237v156h-127v-156h127zM314 451v145h-127v-145h127zM376 451h137v145h-137v-145zM573 451h127v145h-127v-145zM561 156
q150 -64 275 -152l-34 -54q-68 52 -136 90.5t-138 66.5zM364 109q-57 -48 -127 -88t-156 -73l-28 59q165 56 271 148z" />
    <glyph glyph-name="cid1617" unicode="&#x517c;" 
d="M277 671q-11 21 -23 41.5t-25 37.5l60 23q16 -21 28.5 -46t24.5 -56h194q15 26 27.5 51.5t25.5 53.5l61 -20q-20 -47 -45 -85h207v-56h-250v-76h185v-135h92v-56h-92v-135h-166q84 -113 265 -177l-31 -61q-172 79 -253 197v-222h-62v263h-133v-263h-61v217
q-42 -57 -99.5 -105t-133.5 -87l-36 59q175 71 252 179h-165v57h182v78h-259v56h259v79h-173v56h173v76h-233v56h204zM500 615h-133v-76h133v76zM367 404h133v79h-133v-79zM562 404h121v79h-121v-79zM367 270h133v78h-133v-78zM562 270h121v78h-121v-78z" />
    <glyph glyph-name="cid1622" unicode="&#x5185;" 
d="M441 404q-55 -151 -209 -252l-42 54q149 96 197 245q6 26 12 53.5t12 58.5h-253v-607h-65v669h325q6 68 6 145h66q0 -38 -2.5 -75t-4.5 -70h311v-571q0 -89 -86 -89h-138l-19 64l136 -3q43 0 43 43v494h-254q-4 -25 -7.5 -48t-9.5 -46q69 -66 126.5 -130t105.5 -128
l-47 -48q-76 113 -203 241z" />
    <glyph glyph-name="cid1624" unicode="&#x5189;" 
d="M204 252h208v141h-208v-141zM141 649h271v116h63v-116h273v-397h99v-62h-99v-145q0 -90 -76 -90h-88l-15 59l83 -3q34 0 34 48v131h-482v-235h-63v235h-99v62h99v397zM686 393h-211v-141h211v141zM686 589h-211v-138h211v138zM204 589v-138h208v138h-208z" />
    <glyph glyph-name="cid1626" unicode="&#x518d;" 
d="M816 728v-61h-341v-91h265v-336h102v-60h-102v-132q0 -90 -80 -90h-87l-17 61l84 -2q38 0 38 45v118h-470v-225h-61v225h-102v60h102v336h265v91h-341v61h745zM412 240v113h-204v-113h204zM678 240v113h-203v-113h203zM412 408v110h-204v-110h204zM475 408h203v110h-203
v-110z" />
    <glyph glyph-name="cid1627" unicode="&#x5192;" 
d="M713 402v-448h-61v38h-416v-38h-61v448h538zM236 50h416v62h-416v-62zM236 164h416v64h-416v-64zM236 279h416v68h-416v-68zM774 735v-288h-66v230h-529v-230h-66v288h661zM251 620h385v-52h-385v52zM251 512h385v-51h-385v51z" />
    <glyph glyph-name="cid1630" unicode="&#x5197;" 
d="M792 530h-62v131h-574v-134h-63v193h699v-190zM264 519h344v-452q0 -35 34 -35h87q36 0 44 41q3 52 3 153l62 -18q-2 -121 -11 -167q-14 -66 -96 -66h-98q-86 0 -86 84v400h-223v-170q-6 -221 -218 -335l-53 47q206 96 211 293v225z" />
    <glyph glyph-name="cid1632" unicode="&#x519b;" 
d="M295 539q13 26 25 52.5t24 53.5l60 -12q-11 -25 -21 -48t-21 -46h408v-59h-441q-26 -43 -52 -78.5t-55 -68.5h217v104h64v-104h249v-58h-249v-104h322v-62h-322v-158h-64v158h-378v62h378v104h-289l-13 50q35 31 65 69.5t59 85.5h-143v59h177zM801 570h-63v102h-586v-102
h-64v163h713v-163z" />
    <glyph glyph-name="cid1634" unicode="&#x51a0;" 
d="M412 544v-59h-293v59h293zM439 377v-61h-69v-243q0 -43 42 -43h282q36 0 53 17q21 18 28 114l57 -19q-6 -61 -16.5 -97.5t-25.5 -50.5q-28 -22 -85 -22h-313q-83 0 -83 89v255h-71q-9 -146 -37 -219q-38 -82 -120 -142l-39 50q70 49 103 120q27 63 34 191h-101v61h361z
M653 507v94h61v-94h94v-60h-94v-269q0 -84 -76 -84h-97l-14 60q23 -3 45.5 -4t44.5 -1q36 0 36 45v253h-197v60h197zM514 400q47 -66 83 -148l-48 -26q-38 85 -84 151zM805 570h-61v99h-602v-99h-61v159h724v-159z" />
    <glyph glyph-name="cid1637" unicode="&#x51a5;" 
d="M683 608v-294h-477v294h477zM621 436h-355v-67h355v67zM621 486v67h-355v-67h355zM561 139q68 -29 130 -62.5t119 -72.5l-35 -55q-122 91 -249 141zM368 99q-52 -40 -115.5 -77t-140.5 -67l-39 50q151 59 249 135zM424 228q-15 39 -32 66l64 11q9 -16 16 -35t15 -42h349
v-56h-786v56h374zM805 551h-62v124h-598v-124h-64v183h724v-183z" />
    <glyph glyph-name="cid1639" unicode="&#x51ac;" 
d="M322 333q181 -54 331 -129l-36 -56q-80 42 -162.5 75t-168.5 57zM205 175q131 -35 251 -75.5t229 -88.5l-36 -59q-236 107 -482 168zM374 762q-7 -19 -16.5 -37.5t-20.5 -36.5h380v-52q-85 -108 -206 -186q149 -73 339 -97l-28 -59q-207 28 -375 118q-164 -86 -379 -122
l-31 59q101 17 187 42t161 59q-41 26 -77.5 55t-69.5 62q-26 -22 -53.5 -42.5t-58.5 -40.5l-41 53q166 96 224 233zM447 483q55 31 101 67.5t84 78.5h-337q-5 -5 -7.5 -9.5t-7.5 -9.5q75 -73 167 -127z" />
    <glyph glyph-name="cid1640" unicode="&#x51af;" 
d="M99 737q43 -58 77 -108t59 -94l-53 -36q-53 92 -137 205zM246 348q-32 -100 -66.5 -192t-75.5 -178l-59 26q42 90 77.5 181.5t66.5 185.5zM454 613l-49 -233h225l50 291h-377v61h449l-58 -352h121q0 -317 -41 -366q-44 -48 -181 -48q-21 0 -42.5 0.5t-44.5 1.5l-15 61
q31 -2 52.5 -3.5t33.5 -1.5q126 0 151 43q26 45 26 255h-424l62 295zM672 210v-61h-409v61h409z" />
    <glyph glyph-name="cid1641" unicode="&#x51b0;" 
d="M88 731q86 -107 130 -184l-51 -36q-49 86 -134 185zM228 345q-30 -98 -63 -189.5t-70 -176.5l-60 27q39 88 72 178t64 183zM396 -41l-14 63q23 -3 44.5 -4t42.5 -1q37 0 37 34v716h65v-181q22 -76 49 -141q89 65 158 188l48 -41q-40 -68 -84.5 -117.5t-96.5 -84.5
q76 -160 205 -297l-41 -54q-78 92 -137.5 189.5t-100.5 205.5v-399q0 -76 -80 -76h-95zM251 498v60h213v-57q-37 -313 -222 -460l-43 50q169 133 206 407h-154z" />
    <glyph glyph-name="cid1643" unicode="&#x51b2;" 
d="M99 738q85 -116 133 -203l-52 -36q-51 91 -135 205zM241 347q-31 -100 -65 -191.5t-71 -178.5l-59 26q38 90 72.5 181.5t64.5 185.5zM591 765v-155h225v-402h-61v44h-164v-298h-66v298h-162v-44h-62v402h224v155h66zM525 312v239h-162v-239h162zM755 312v239h-164v-239
h164z" />
    <glyph glyph-name="cid1645" unicode="&#x51b5;" 
d="M766 727v-361h-122v-307q0 -28 30 -28h61q28 0 39 20q14 25 18 137l58 -18q-9 -140 -34 -169q-22 -27 -69 -27h-92q-71 0 -71 72v320h-85q-17 -283 -245 -411l-36 56q205 105 219 355h-117v361h446zM703 665h-321v-241h321v241zM99 736q94 -111 149 -194l-51 -35
q-27 44 -64.5 93t-85.5 104zM253 349q-36 -101 -75 -193.5t-82 -180.5l-59 26q47 90 86.5 182.5t73.5 188.5z" />
    <glyph glyph-name="cid1646" unicode="&#x51b6;" 
d="M99 739q99 -116 151 -200l-56 -36q-52 88 -149 202zM259 345q-35 -98 -74 -189.5t-82 -176.5l-60 27q45 89 83.5 179.5t72.5 183.5zM770 -45h-63v53h-311v-53h-63v378h437v-378zM707 69v205h-311v-205h311zM676 669q85 -116 161 -259l-59 -30q-9 20 -18.5 38t-19.5 35
q-199 -24 -445 -37l-10 58q87 38 209 296l64 -22q-87 -168 -177 -271q87 5 168.5 13t159.5 18q-22 37 -44 70.5t-45 64.5z" />
    <glyph glyph-name="cid1653" unicode="&#x51c6;" 
d="M99 739q92 -119 139 -202l-54 -37q-25 47 -60 97.5t-79 107.5zM242 330q-60 -193 -137 -369l-59 26q39 90 73.5 181.5t64.5 184.5zM395 254h182v122h-182v-122zM395 62h182v133h-182v-133zM395 -45h-62v522q-20 -30 -41 -59.5t-43 -60.5l-22 68q115 155 163 345l60 -12
q-8 -37 -20 -72.5t-26 -68.5h189q-12 37 -24 72t-28 70l61 17q16 -41 28 -79t21 -72l-24 -8h199v-61h-186v-121h168v-59h-168v-122h170v-59h-170v-133h206v-59h-451v-48zM395 556v-121h182v121h-182z" />
    <glyph glyph-name="cid1662" unicode="&#x51e0;" 
d="M46 0q96 96 135 204q31 94 31 252v275h414v-662q0 -33 34 -33h68q20 0 34 6q13 10 16 28q3 16 5.5 59t2.5 114l60 -18q0 -52 -2.5 -92t-6.5 -68q-6 -53 -30 -71q-23 -16 -73 -16h-74q-98 0 -98 86v604h-287v-212q0 -165 -37 -278q-21 -58 -56 -114t-88 -109z" />
    <glyph glyph-name="cid1662" unicode="&#x2f0f;" 
d="M46 0q96 96 135 204q31 94 31 252v275h414v-662q0 -33 34 -33h68q20 0 34 6q13 10 16 28q3 16 5.5 59t2.5 114l60 -18q0 -52 -2.5 -92t-6.5 -68q-6 -53 -30 -71q-23 -16 -73 -16h-74q-98 0 -98 86v604h-287v-212q0 -165 -37 -278q-21 -58 -56 -114t-88 -109z" />
    <glyph glyph-name="cid1664" unicode="&#x51e4;" 
d="M300 451q41 -39 80 -77t76 -77q55 95 80 207h-268v58h329v-55q-15 -76 -39 -140t-58 -120q35 -38 65.5 -76.5t59.5 -77.5l-48 -48q-26 37 -54 74t-59 74q-45 -59 -100 -104.5t-124 -77.5l-34 53q65 33 119 77.5t95 101.5q-38 41 -78.5 82.5t-85.5 82.5zM725 733v-355
q0 -108 3.5 -177.5t11.5 -100.5q14 -59 35 -59q16 0 29 125l52 -24q-8 -51 -16 -87t-17 -53q-20 -34 -42 -34q-61 0 -90 83q-29 79 -29 327v293h-461v-282q-4 -257 -117 -431l-51 40q102 157 105 391v344h587z" />
    <glyph glyph-name="cid1668" unicode="&#x51f0;" 
d="M380 587q15 31 24 62l62 -8q-6 -15 -12 -28t-11 -26h171v-254h-370v254h136zM556 437h-254v-57h254v57zM556 484v54h-254v-54h254zM629 280v-50h-170v-71h149v-51h-149v-71h209v-54h-481v54h211v71h-150v51h150v71h-171v50h402zM734 732v-407q0 -186 14 -239
q10 -52 29 -52q17 0 31 122l49 -24q-8 -50 -15.5 -84.5t-16.5 -53.5q-18 -32 -43 -32q-56 0 -81 74q-27 72 -27 289v347h-493v-283q-1 -256 -97 -433l-50 40q80 156 87 393v343h613z" />
    <glyph glyph-name="cid1672" unicode="&#x51f8;" 
d="M139 -2v-41h-65v494h185v284h368v-284h186v-494h-65v41h-609zM748 60v329h-186v282h-239v-282h-184v-329h609z" />
    <glyph glyph-name="cid1673" unicode="&#x51f9;" 
d="M804 720v-757h-65v45h-592v-45h-66v757h283v-331h157v331h283zM147 70h592v587h-157v-332h-284v331h-151v-586z" />
    <glyph glyph-name="cid1674" unicode="&#x51fa;" 
d="M684 459v243h63v-305h-271v-325h250v242h64v-353h-64v50h-566v-50h-64v353h64v-242h251v325h-272v305h64v-243h208v310h65v-310h208z" />
    <glyph glyph-name="cid1675" unicode="&#x51fb;" 
d="M121 636h290v126h65v-126h286v-60h-286v-148h359v-61h-359v-313h209v236h62v-336h-62v40h-482v-40h-63v336h63v-236h208v313h-358v61h358v148h-290v60z" />
    <glyph glyph-name="cid1679" unicode="&#x5200;" 
d="M101 643v61h681q0 -228 -3 -367t-9 -193q-17 -163 -150 -163q-23 0 -62 1t-96 2l-15 59q94 -3 163 -3q85 0 97 130q4 39 7 157t5 316h-303q-14 -461 -317 -670l-36 56q280 181 291 614h-253z" />
    <glyph glyph-name="cid1680" unicode="&#x5201;" 
d="M570 431q-93 -72 -206 -135t-250 -121l-26 63q137 52 252.5 116t211.5 140zM446 27q33 -1 66 -1h65q54 0 79 38q27 40 32 194q2 44 2.5 145t3.5 261h-570v63h634q-3 -217 -5.5 -345t-5.5 -169q-7 -144 -39 -195t-116 -51h-59t-69 -2z" />
    <glyph glyph-name="cid1683" unicode="&#x5206;" 
d="M372 716q-30 -56 -61.5 -101t-60.5 -81q-66 -75 -177 -153l-35 56q90 51 164 137q31 36 61 79.5t56 94.5zM163 355v61h546q-2 -83 -6.5 -150.5t-11.5 -118.5q-16 -104 -49 -142q-35 -39 -110 -43h-153l-17 62q36 -2 70.5 -2.5t67.5 -0.5q83 0 110 62q13 32 22.5 99
t12.5 173h-241q-31 -143 -87 -230q-33 -48 -82.5 -89.5t-113.5 -77.5l-40 50q117 64 178 143q57 78 82 204h-178zM576 761q74 -203 271 -321l-43 -49q-205 133 -282 341z" />
    <glyph glyph-name="cid1686" unicode="&#x520a;" 
d="M466 735v-64h-168v-251h193v-63h-193v-400h-63v400h-193v63h193v251h-166v64h397zM605 684v-546h-63v546h63zM604 -38l-15 64q65 -4 122 -4q37 0 37 42v702h65v-718q0 -86 -79 -86h-130z" />
    <glyph glyph-name="cid1690" unicode="&#x5212;" 
d="M632 691v-553h-62v553h62zM600 -38l-14 63q32 -3 61.5 -4.5t58.5 -1.5q41 0 41 42v705h64v-720q0 -84 -83 -84h-128zM491 508l-256 -39q3 -38 8.5 -69t10.5 -61q6 -28 12 -53.5t14 -48.5q40 44 73 96t60 115l56 -30q-67 -149 -163 -251q5 -17 12.5 -32t14.5 -27
q49 -79 90 -80q23 3 49 139l54 -35q-9 -35 -18.5 -63.5t-20.5 -51.5q-27 -57 -61 -57q-62 0 -121 86q-14 17 -24.5 35.5t-20.5 41.5q-88 -72 -187 -115l-39 57q112 45 199 124q-8 25 -16.5 51.5t-15.5 56.5q-10 34 -17 74t-12 88l-115 -18l-10 62l118 19q-9 108 -9 245h64
q0 -65 2.5 -124t6.5 -112l253 39zM337 770q27 -30 50 -62t46 -68l-54 -27q-45 73 -93 131z" />
    <glyph glyph-name="cid1692" unicode="&#x5217;" 
d="M600 -38l-13 63q30 -3 58 -4.5t54 -1.5q49 0 49 53v690h64v-704q0 -96 -90 -96h-122zM621 694v-560h-61v560h61zM494 731v-63h-230q-9 -66 -25 -122h211v-56q-64 -374 -361 -527l-31 58q151 77 236 215q-65 55 -155 104q-30 -40 -66 -73l-30 58q64 64 104 148t55 195
h-138v63h430zM172 389q43 -23 80.5 -48t70.5 -51q22 44 39 92.5t27 103.5h-171q-10 -26 -22 -50.5t-24 -46.5z" />
    <glyph glyph-name="cid1693" unicode="&#x5218;" 
d="M246 640q-10 32 -20.5 63.5t-22.5 59.5l63 10q12 -29 22 -62t21 -71h191v-62h-79q-12 -91 -32.5 -168.5t-47.5 -142.5q43 -55 81.5 -109.5t73.5 -110.5l-48 -47q-29 50 -63.5 100.5t-74.5 101.5q-91 -167 -239 -245l-35 56q147 77 231 246q-40 52 -85.5 104.5
t-96.5 107.5l44 40q45 -48 87 -94.5t80 -94.5q22 57 37 120.5t27 135.5h-312v62h198zM595 -38l-14 64q63 -4 122 -4q39 0 39 45v699h63v-715q0 -89 -81 -89h-129zM617 690v-553h-64v553h64z" />
    <glyph glyph-name="cid1695" unicode="&#x521a;" 
d="M333 -38l-16 62l91 -3q37 0 37 43v607h-313v-712h-62v774h435v-682q0 -89 -78 -89h-94zM198 565q26 -37 49 -74.5t46 -72.5q30 93 48 202l57 -11q-12 -72 -28.5 -135.5t-37.5 -120.5q27 -49 51 -92t42 -84l-50 -34q-33 69 -72 141q-50 -108 -113 -185l-39 49
q34 43 62.5 92.5t52.5 106.5q-26 46 -55.5 92.5t-62.5 94.5zM652 690v-552h-59v552h59zM602 -38l-13 62q31 -3 60 -4.5t58 -1.5q44 0 44 44v704h61v-720q0 -84 -84 -84h-126z" />
    <glyph glyph-name="cid1696" unicode="&#x521b;" 
d="M191 427v-366q0 -31 35 -31h169q44 0 55 22q7 12 12 37t7 61l60 -19q-10 -113 -34 -140q-20 -21 -83 -21h-211q-74 0 -74 68v445h316v-236q-1 -71 -75 -74q-26 0 -50.5 0.5t-47.5 1.5l-16 61q26 -2 48 -3t42 -1q36 0 36 35v160h-189zM314 760q118 -123 224 -257l-43 -45
q-57 75 -106.5 136t-92.5 106q-50 -74 -106 -140t-121 -129l-38 52q65 59 124 128t112 149h47zM652 690v-552h-63v552h63zM600 -38l-14 63q34 -3 66.5 -4.5t61.5 -1.5q36 0 36 41v706h63v-723q0 -81 -75 -81h-138z" />
    <glyph glyph-name="cid1697" unicode="&#x521d;" 
d="M373 638v62h440q0 -229 -2.5 -369.5t-9.5 -193.5q-15 -167 -144 -167q-28 0 -100 4l-16 58q62 -3 108 -3q77 0 90 133q7 79 11 476h-182v-70q-6 -418 -229 -612l-50 42q212 178 215 570v70h-131zM163 311q-49 -56 -110 -112l-19 66q173 157 228 307h-208v58h120
q-12 31 -25 62t-28 62l62 16q16 -35 29 -67t21 -61l-30 -12h121v-52q-33 -97 -98 -190v-8q12 -8 22.5 -15.5t21.5 -16.5q23 17 44.5 40.5t43.5 56.5l39 -40q-41 -57 -88 -89q20 -16 37.5 -33.5t33.5 -36.5l-35 -53q-29 39 -59.5 70.5t-59.5 58.5v-367h-63v356z" />
    <glyph glyph-name="cid1699" unicode="&#x5224;" 
d="M128 728q18 -39 33 -83t30 -93l-58 -15q-12 46 -27.5 88.5t-32.5 84.5zM475 722q-27 -110 -66 -189l-56 21q19 35 35.5 81t31.5 102zM242 495v270h63v-270h168v-61h-168q-3 -37 -5.5 -70t-8.5 -65h208v-61h-220q-47 -179 -175 -280l-50 45q117 85 161 235h-166v61h180
q12 64 13 135h-172v61h172zM628 684v-546h-63v546h63zM607 -38l-14 63q29 -3 56 -4.5t53 -1.5q45 0 45 49v698h63v-714q0 -90 -87 -90h-116z" />
    <glyph glyph-name="cid1701" unicode="&#x5229;" 
d="M228 529v120q-38 -6 -76.5 -11.5t-78.5 -7.5l-19 59q217 17 361 76l32 -54q-75 -30 -154 -48v-134h164v-61h-164v-41q82 -72 171 -163l-40 -56q-38 48 -71 86.5t-60 65.5v-405h-65v398q-64 -128 -168 -234l-28 74q138 120 196 273v2h-176v61h176zM594 684v-547h-65v547
h65zM591 -38l-14 64q64 -4 122 -4q40 0 40 43v701h64v-716q0 -88 -82 -88h-130z" />
    <glyph glyph-name="cid1702" unicode="&#x522b;" 
d="M85 451v282h379v-282h-175q-2 -29 -3.5 -55.5t-3.5 -52.5h189q0 -229 -12 -286q-14 -90 -129 -90q-19 0 -60 3l-16 57q20 -1 36.5 -2t30.5 -1q68 0 78 58q9 35 10 200h-135q-9 -40 -17 -73.5t-19 -58.5q-51 -113 -162 -193l-42 50q104 72 146 168q18 43 30 107h-157v61
h165q2 26 5 52.5t4 55.5h-142zM625 690v-552h-62v552h62zM602 -38l-14 63q31 -3 60 -4.5t58 -1.5q41 0 41 49v698h64v-714q0 -90 -83 -90h-126zM401 676h-253v-167h253v167z" />
    <glyph glyph-name="cid1704" unicode="&#x522e;" 
d="M616 684v-546h-65v546h65zM594 -38l-14 64q63 -4 123 -4q40 0 40 46v698h64v-714q0 -90 -83 -90h-130zM246 509v140q-39 -4 -80 -6t-87 -2l-20 57q232 2 388 61l31 -55q-36 -15 -77.5 -26.5t-89.5 -19.5v-149h193v-61h-193v-144h153v-346h-64v45h-240v-45h-61v346h147
v144h-209v61h209zM400 62v184h-240v-184h240z" />
    <glyph glyph-name="cid1705" unicode="&#x5230;" 
d="M501 40q-103 -22 -212.5 -40t-229.5 -33l-13 62q104 11 207 28v166h-173v64h173v102h64v-102h159v-64h-159v-156q48 7 93.5 16.5t90.5 20.5v-64zM498 729v-61h-228q-33 -66 -62 -115.5t-58 -83.5q66 6 128.5 14.5t121.5 19.5q-14 24 -30 47.5t-35 48.5l50 32
q42 -61 76.5 -113t59.5 -96l-54 -38q-9 18 -18.5 35t-18.5 35q-86 -14 -177.5 -26.5t-192.5 -23.5l-14 58q9 1 15 2.5t11 4.5q55 47 131 199h-146v61h441zM600 -38l-13 64q63 -4 122 -4q38 0 38 39v705h65v-721q0 -83 -81 -83h-131zM632 686v-549h-62v549h62z" />
    <glyph glyph-name="cid1707" unicode="&#x5236;" 
d="M138 597q-25 -56 -56 -89l-51 38q67 69 85 197l60 -9q-3 -22 -7.5 -40.5t-9.5 -37.5h103v110h64v-110h166v-59h-166v-115h192v-59h-192v-93h173v-235q0 -79 -79 -79h-48l-15 61l43 -4q38 0 38 36v161h-112v-315h-64v315h-112v-259h-62v319h174v93h-214v59h214v115h-124z
M632 686v-548h-62v548h62zM602 -38l-14 63q32 -3 62 -4.5t60 -1.5q41 0 41 43v704h62v-720q0 -84 -81 -84h-130z" />
    <glyph glyph-name="cid1708" unicode="&#x5237;" 
d="M388 483v-87h139v-281q0 -73 -66 -73h-41l-15 57l38 -3q27 0 27 32v212h-82v-378h-57v378h-80v-302h-57v358h137v87h57zM655 690v-552h-59v552h59zM604 -38l-13 62q31 -3 61.5 -4.5t59.5 -1.5q40 0 40 44v704h61v-720q0 -84 -79 -84h-130zM159 672v-98h308v98h-308z
M159 418q-1 -136 -21 -250.5t-60 -211.5l-47 42q68 164 69 420v315h426v-218h-367v-97z" />
    <glyph glyph-name="cid1709" unicode="&#x5238;" 
d="M215 235v47q-65 -49 -145 -88l-36 53q143 64 233 165h-206v60h252q16 23 29 46.5t24 49.5h-255v57h278q12 36 21 74t15 79l64 -9q-14 -78 -35 -144h179l-44 27q20 26 38 56.5t32 65.5l52 -18q-15 -39 -33.5 -70.5t-41.5 -60.5h140v-57h-343q-11 -26 -23.5 -49.5
t-24.5 -46.5h440v-60h-195q35 -44 90 -84.5t133 -78.5l-42 -52q-76 44 -132 90q-5 -120 -13 -191q-11 -74 -37 -104q-25 -30 -80 -31h-131l-18 60q33 -3 62 -3h56q57 0 75 40q19 42 24 177h-217q-27 -97 -74 -159q-59 -69 -170 -121l-41 50q52 23 91.5 48.5t65.5 51.5
q45 51 69 130h-126zM344 412q-26 -33 -54 -62t-60 -56h442q-36 30 -62 59t-45 59h-221zM238 769q18 -29 34.5 -58t29.5 -61l-51 -24q-32 71 -68 124z" />
    <glyph glyph-name="cid1711" unicode="&#x523a;" 
d="M628 691v-554h-60v554h60zM616 -38l-14 60q48 -4 93 -4q44 0 44 43v705h63v-721q0 -83 -88 -83h-98zM313 -44h-60v292q-73 -134 -187 -224l-33 57q141 97 220 251v150h-105v-219h-60v276h165v85h-189v60h189v83h60v-83h185v-60h-185v-85h166v-201q0 -64 -71 -64h-44
l-14 51l37 -1q32 0 32 31v127h-106v-202q44 -33 88 -69.5t90 -78.5l-37 -55q-41 48 -76 84.5t-65 63.5v-269z" />
    </font>
</defs>
</svg>
