<?xml version="1.0" encoding="utf-8"?>
<!-- Generator: Adobe Illustrator 24.3.0, SVG Export Plug-In . SVG Version: 6.00 Build 0)  -->
<svg version="1.1" id="图层_1" xmlns="http://www.w3.org/2000/svg" xmlns:xlink="http://www.w3.org/1999/xlink" x="0px" y="0px"
	 viewBox="0 0 48 48" style="enable-background:new 0 0 48 48;" xml:space="preserve">
<style type="text/css">
	.st0{fill:#FFE100;}
	.st1{fill:#332C2B;}
</style>
<path class="st0" d="M24,42.49c-2.06,0-3.78-1.72-3.78-3.78s1.72-3.78,3.78-3.78s3.78,1.72,3.78,3.78S26.06,42.49,24,42.49z
	 M24,36.82c-1.03,0-1.89,0.86-1.89,1.89c0,1.03,0.86,1.89,1.89,1.89c1.03,0,1.89-0.86,1.89-1.89C25.89,37.68,25.03,36.82,24,36.82z"
	/>
<path class="st1" d="M32.43,48c-0.17,0-0.34,0-0.52-0.17c-2.06-1.2-5.51-1.2-5.51-1.2H12.13c-2.75,0-4.99-2.24-4.99-4.99V4.99
	C7.14,2.24,9.38,0,12.13,0h23.74c2.75,0,4.99,2.24,4.99,4.99v36.65c0,2.75-2.24,4.99-4.99,4.99c-0.52,0-0.86-0.34-0.86-0.86
	s0.34-0.86,0.86-0.86c1.72,0,3.1-1.38,3.1-3.1V4.99c0-1.72-1.38-3.1-3.1-3.1H12.13c-1.72,0-3.1,1.38-3.1,3.1v36.65
	c0,1.72,1.38,3.1,3.1,3.1h14.28c0.17,0,3.96,0,6.37,1.55c0.52,0.34,0.52,0.86,0.34,1.2C33.12,47.83,32.77,48,32.43,48z"/>
<path class="st0" d="M27.87,5.51h-7.74c-0.52,0-0.86-0.34-0.86-0.86s0.34-0.86,0.86-0.86h7.74c0.52,0,0.86,0.34,0.86,0.86
	C28.73,4.99,28.39,5.51,27.87,5.51z"/>
</svg>
