<?xml version="1.0" encoding="utf-8"?>
<!-- Generator: Adobe Illustrator 24.3.0, SVG Export Plug-In . SVG Version: 6.00 Build 0)  -->
<svg version="1.1" id="图层_1" xmlns="http://www.w3.org/2000/svg" xmlns:xlink="http://www.w3.org/1999/xlink" x="0px" y="0px"
	 viewBox="0 0 48 48" style="enable-background:new 0 0 48 48;" xml:space="preserve">
<style type="text/css">
	.st0{fill:#332C2B;}
</style>
<path class="st0" d="M31.98,5.81c-8.17-6.85-20.44-5.74-27.4,2.43c-6.96,8.28-5.85,20.55,2.32,27.39c5.97,4.97,14.14,5.85,21.1,2.54
	c0.55-0.22,0.77-0.88,0.55-1.44c-0.22-0.55-0.88-0.77-1.44-0.55c-6.08,2.98-13.37,2.21-18.67-2.21c-7.29-6.08-8.17-17.01-2.1-24.3
	c6.19-7.29,17.01-8.28,24.3-2.21s8.17,17.01,2.1,24.3l-0.66,0.77l0.77,0.66l0.66,0.66l1.77,1.77c1.88,1.77,3.65,3.65,5.41,5.3
	l0.11,0.11l5.3,5.3c0.44,0.44,1.1,0.44,1.55,0c0.44-0.44,0.44-1.1,0-1.55l-5.3-5.3l-0.11-0.11c-1.66-1.66-3.53-3.53-5.41-5.3
	c-0.66-0.66-1.22-1.22-1.77-1.66C41.15,24.15,39.94,12.44,31.98,5.81z"/>
</svg>
