<?xml version="1.0" encoding="utf-8"?>
<!-- Generator: Adobe Illustrator 24.3.0, SVG Export Plug-In . SVG Version: 6.00 Build 0)  -->
<svg version="1.1" id="图层_1" xmlns="http://www.w3.org/2000/svg" xmlns:xlink="http://www.w3.org/1999/xlink" x="0px" y="0px"
	 viewBox="0 0 48 48" style="enable-background:new 0 0 48 48;" xml:space="preserve">
<style type="text/css">
	.st0{fill:#FFFFFF;}
	.st1{fill:#FFE100;}
</style>
<circle class="st0" cx="24" cy="24" r="24"/>
<path class="st1" d="M28.22,17.19c-3.13-2.63-7.84-2.2-10.5,0.93c-2.67,3.18-2.24,7.88,0.89,10.5c2.29,1.91,5.42,2.24,8.09,0.97
	c0.21-0.08,0.3-0.34,0.21-0.55c-0.08-0.21-0.34-0.3-0.55-0.21c-2.33,1.14-5.12,0.85-7.16-0.85c-2.8-2.33-3.13-6.52-0.8-9.32
	c2.37-2.8,6.52-3.18,9.32-0.85s3.13,6.52,0.8,9.32l-0.25,0.3l0.3,0.25l0.25,0.25l0.68,0.68c0.72,0.68,1.4,1.4,2.08,2.03l0.04,0.04
	l2.03,2.03c0.17,0.17,0.42,0.17,0.59,0c0.17-0.17,0.17-0.42,0-0.59l-2.03-2.03l-0.04-0.04c-0.64-0.64-1.36-1.36-2.08-2.03
	c-0.25-0.25-0.47-0.47-0.68-0.64C31.74,24.22,31.27,19.73,28.22,17.19z"/>
</svg>
