<?xml version="1.0" encoding="utf-8"?>
<!-- Generator: Adobe Illustrator 24.3.0, SVG Export Plug-In . SVG Version: 6.00 Build 0)  -->
<svg version="1.1" id="图层_1" xmlns="http://www.w3.org/2000/svg" xmlns:xlink="http://www.w3.org/1999/xlink" x="0px" y="0px"
	 viewBox="0 0 48 48" style="enable-background:new 0 0 48 48;" xml:space="preserve">
<style type="text/css">
	.st0{fill:#92CB4A;}
	.st1{fill:#92CB4A;fill-opacity:0.71;}
</style>
<path class="st0" d="M22.09,31.8c0.41-0.02,0.8-0.17,1.12-0.42l9.4-9.4c0.25-0.25,0.39-0.59,0.39-0.94c0-0.35-0.14-0.69-0.39-0.94
	c-0.25-0.25-0.59-0.39-0.94-0.39c-0.35,0-0.69,0.14-0.94,0.39l-8.56,8.56l-4.32-4.32c-0.25-0.25-0.59-0.39-0.94-0.39
	c-0.35,0-0.69,0.14-0.94,0.39c-0.25,0.25-0.39,0.59-0.39,0.94c0,0.35,0.14,0.69,0.39,0.94l5.19,5.19c0.12,0.12,0.27,0.22,0.43,0.29
	C21.74,31.77,21.92,31.8,22.09,31.8z"/>
<path class="st0" d="M31.45,36.73c-2.27,1.54-4.95,2.36-7.69,2.35c-7.57,0-13.73-6.16-13.73-13.73c0-2.7,0.79-5.35,2.29-7.6
	c0.08-0.11,0.13-0.23,0.16-0.36c0.03-0.13,0.03-0.26,0-0.4c-0.02-0.13-0.08-0.26-0.15-0.37c-0.07-0.11-0.17-0.21-0.28-0.28
	c-0.11-0.07-0.24-0.12-0.37-0.15c-0.13-0.03-0.27-0.02-0.4,0c-0.13,0.03-0.25,0.08-0.36,0.16c-0.11,0.08-0.2,0.17-0.27,0.29
	c-1.72,2.58-2.63,5.61-2.63,8.71c0,8.67,7.06,15.73,15.73,15.73c3.14,0.01,6.21-0.93,8.81-2.7c0.11-0.07,0.2-0.17,0.27-0.28
	c0.07-0.11,0.12-0.23,0.15-0.36c0.02-0.13,0.02-0.26,0-0.39c-0.03-0.13-0.08-0.25-0.15-0.36c-0.07-0.11-0.17-0.2-0.28-0.27
	c-0.11-0.07-0.23-0.12-0.36-0.15c-0.13-0.02-0.26-0.02-0.39,0C31.68,36.6,31.56,36.65,31.45,36.73L31.45,36.73z M23.76,9.62
	c-3.33-0.01-6.58,1.05-9.27,3.02c-0.21,0.16-0.36,0.39-0.4,0.65c-0.04,0.26,0.02,0.53,0.18,0.74c0.16,0.21,0.39,0.36,0.65,0.4
	c0.26,0.04,0.53-0.02,0.74-0.18c2.35-1.72,5.18-2.64,8.09-2.63c7.57,0,13.73,6.16,13.73,13.73c0.01,2.91-0.92,5.74-2.63,8.08
	c-0.08,0.11-0.14,0.23-0.17,0.36c-0.03,0.13-0.04,0.26-0.02,0.39c0.02,0.13,0.06,0.26,0.13,0.37c0.07,0.11,0.16,0.21,0.27,0.29
	c0.11,0.08,0.23,0.13,0.36,0.17c0.13,0.03,0.26,0.04,0.39,0.01s0.26-0.07,0.37-0.14c0.11-0.07,0.21-0.16,0.29-0.27
	c1.97-2.69,3.03-5.93,3.02-9.27C39.49,16.68,32.44,9.62,23.76,9.62z"/>
<circle class="st0" cx="41.81" cy="9.51" r="2.28"/>
<circle class="st0" cx="1.52" cy="31.78" r="1.52"/>
<circle class="st1" cx="46.48" cy="21.13" r="1.52"/>
</svg>
