<?xml version="1.0" encoding="utf-8"?>
<!-- Generator: Adobe Illustrator 24.3.0, SVG Export Plug-In . SVG Version: 6.00 Build 0)  -->
<svg version="1.1" id="图层_1" xmlns="http://www.w3.org/2000/svg" xmlns:xlink="http://www.w3.org/1999/xlink" x="0px" y="0px"
	 viewBox="0 0 48 48" style="enable-background:new 0 0 48 48;" xml:space="preserve">
<style type="text/css">
	.st0{fill:none;stroke:#312828;stroke-width:0.75;}
	.st1{fill:none;stroke:#312828;}
</style>
<path class="st0" d="M39.23,27.75L39.51,28L39.23,27.75l-0.89,1c-0.12,0.13-0.29,0.21-0.47,0.21H10.23c-0.54,0-0.83-0.64-0.47-1.04
	l0.89-1c0.12-0.13,0.29-0.21,0.47-0.21h27.64C39.31,26.71,39.59,27.34,39.23,27.75z"/>
<path class="st1" d="M5.64,25.06c0.09-0.14,0.25-0.23,0.42-0.23h39.11c0.4,0,0.63,0.44,0.42,0.77l-3.22,5
	c-0.09,0.14-0.25,0.23-0.42,0.23H2.83c-0.4,0-0.63-0.44-0.42-0.77L5.64,25.06z"/>
</svg>
