<svg id="图层_1" data-name="图层 1" xmlns="http://www.w3.org/2000/svg" viewBox="0 0 48 48"><defs><style>.cls-1{fill:#332c2b;}.cls-2{fill:#312828;}</style></defs><path class="cls-1" d="M30.8,32.6h-16a2.5,2.5,0,0,1-2.5-2.5V18.67a2.53,2.53,0,0,1,1.11-2.08l2.11-1.4.56.83L14,17.43a1.47,1.47,0,0,0-.67,1.24V30.1a1.5,1.5,0,0,0,1.5,1.5h16a1.5,1.5,0,0,0,1.5-1.5V18.67a1.47,1.47,0,0,0-.67-1.24L29.52,16l.56-.83,2.11,1.4a2.53,2.53,0,0,1,1.11,2.08V30.1A2.5,2.5,0,0,1,30.8,32.6Z"/><path class="cls-1" d="M19.47,29.6a.5.5,0,0,1-.25-.93l2.61-1.5-7.3-4.64a.5.5,0,0,1,.54-.85L22.8,26.6l7.73-4.92a.5.5,0,0,1,.54.85l-8,5.08,0,0-3.33,1.91A.5.5,0,0,1,19.47,29.6Z"/><path class="cls-2" d="M30.3,23.1h-1v-9a.51.51,0,0,0-.5-.5h-12a.5.5,0,0,0-.5.5v9h-1v-9a1.5,1.5,0,0,1,1.5-1.5h12a1.5,1.5,0,0,1,1.5,1.5Z"/><path class="cls-2" d="M26.3,17.1h-8a.5.5,0,0,1-.5-.5.5.5,0,0,1,.5-.5h8a.5.5,0,0,1,.5.5A.5.5,0,0,1,26.3,17.1Z"/><path class="cls-2" d="M23.3,21.1h-5a.5.5,0,0,1-.5-.5.5.5,0,0,1,.5-.5h5a.5.5,0,0,1,.5.5A.5.5,0,0,1,23.3,21.1Z"/></svg>