<?xml version="1.0" encoding="utf-8"?>
<!-- Generator: Adobe Illustrator 24.3.0, SVG Export Plug-In . SVG Version: 6.00 Build 0)  -->
<svg version="1.1" id="图层_1" xmlns="http://www.w3.org/2000/svg" xmlns:xlink="http://www.w3.org/1999/xlink" x="0px" y="0px"
	 viewBox="0 0 48 48" style="enable-background:new 0 0 48 48;" xml:space="preserve">
<style type="text/css">
	.st0{fill:#332C2B;}
	.st1{fill:#312828;}
</style>
<g>
	<path class="st0" d="M39.3,38.1h-16c-1.38,0-2.5-1.12-2.5-2.5V24.17c0-0.84,0.42-1.62,1.11-2.08l2.11-1.41l0.55,0.83l-2.11,1.41
		c-0.42,0.28-0.67,0.75-0.67,1.25V35.6c0,0.83,0.67,1.5,1.5,1.5h16c0.83,0,1.5-0.67,1.5-1.5V24.17c0-0.5-0.25-0.97-0.67-1.25
		l-2.11-1.41l0.55-0.83l2.11,1.41c0.7,0.46,1.11,1.24,1.11,2.08V35.6C41.8,36.98,40.68,38.1,39.3,38.1z"/>
</g>
<g>
	<path class="st0" d="M27.97,35.1c-0.17,0-0.34-0.09-0.43-0.25c-0.14-0.24-0.05-0.54,0.19-0.68l2.61-1.5l-7.3-4.65
		c-0.23-0.15-0.3-0.46-0.15-0.69c0.15-0.23,0.46-0.3,0.69-0.15l7.73,4.92l7.73-4.92c0.23-0.15,0.54-0.08,0.69,0.15
		c0.15,0.23,0.08,0.54-0.15,0.69l-7.99,5.08c-0.01,0.01-0.03,0.02-0.04,0.02l-3.33,1.9C28.14,35.08,28.05,35.1,27.97,35.1z"/>
</g>
<g>
	<path class="st1" d="M38.8,28.6h-1v-9c0-0.28-0.22-0.5-0.5-0.5h-12c-0.28,0-0.5,0.22-0.5,0.5v9h-1v-9c0-0.83,0.67-1.5,1.5-1.5h12
		c0.83,0,1.5,0.67,1.5,1.5V28.6z"/>
</g>
<g>
	<path class="st1" d="M34.8,22.6h-8c-0.28,0-0.5-0.22-0.5-0.5s0.22-0.5,0.5-0.5h8c0.28,0,0.5,0.22,0.5,0.5S35.08,22.6,34.8,22.6z"/>
</g>
<g>
	<path class="st1" d="M31.8,26.6h-5c-0.28,0-0.5-0.22-0.5-0.5s0.22-0.5,0.5-0.5h5c0.28,0,0.5,0.22,0.5,0.5S32.08,26.6,31.8,26.6z"/>
</g>
</svg>
