<?xml version="1.0" encoding="utf-8"?>
<!-- Generator: Adobe Illustrator 24.3.0, SVG Export Plug-In . SVG Version: 6.00 Build 0)  -->
<svg version="1.1" id="图层_1" xmlns="http://www.w3.org/2000/svg" xmlns:xlink="http://www.w3.org/1999/xlink" x="0px" y="0px"
	 viewBox="0 0 48 48" style="enable-background:new 0 0 48 48;" xml:space="preserve">
<style type="text/css">
	.st0{fill:none;stroke:#332C2B;stroke-linejoin:round;}
	.st1{fill:none;stroke:#332C2B;stroke-linecap:round;}
	.st2{fill:none;stroke:#312828;}
	.st3{fill:none;stroke:#312828;stroke-linecap:round;}
</style>
<path class="st0" d="M11,7.46L8.89,8.86C8.33,9.23,8,9.86,8,10.53v11.43c0,1.1,0.9,2,2,2h16c1.1,0,2-0.9,2-2V10.53
	c0-0.67-0.33-1.29-0.89-1.66L25,7.46"/>
<path class="st1" d="M18,19.05l8-5.09 M18,19.05l-8-5.09 M18,19.05l-3.33,1.91"/>
<path class="st2" d="M11,14.96v-9c0-0.55,0.45-1,1-1h12c0.55,0,1,0.45,1,1v9"/>
<line class="st3" x1="13.5" y1="8.46" x2="21.5" y2="8.46"/>
<line class="st3" x1="13.5" y1="12.46" x2="18.5" y2="12.46"/>
</svg>
