<?xml version="1.0" encoding="utf-8"?>
<!-- Generator: Adobe Illustrator 24.3.0, SVG Export Plug-In . SVG Version: 6.00 Build 0)  -->
<svg version="1.1" id="图层_1" xmlns="http://www.w3.org/2000/svg" xmlns:xlink="http://www.w3.org/1999/xlink" x="0px" y="0px"
	 viewBox="0 0 48 48" style="enable-background:new 0 0 48 48;" xml:space="preserve">
<style type="text/css">
	.st0{fill:#F4D924;}
	.st1{fill:#312828;}
</style>
<path class="st0" d="M24.87,23.66H12.7c-0.95,0-1.71-0.77-1.71-1.71c0-0.95,0.77-1.71,1.71-1.71h12.17c0.95,0,1.71,0.77,1.71,1.71
	C26.58,22.9,25.81,23.66,24.87,23.66z M34.3,34.1H12.7c-0.95,0-1.71-0.76-1.71-1.71c0-0.95,0.77-1.71,1.71-1.71h21.6
	c0.95,0,1.71,0.76,1.71,1.71C36.01,33.33,35.24,34.1,34.3,34.1z"/>
<path class="st1" d="M42.8,48H5.14C2.31,48,0,45.69,0,42.86V8.63C0,5.8,2.31,3.49,5.14,3.49h17.34c1.42,0,2.79,0.6,3.76,1.64
	l4.33,4.66c0.32,0.35,0.78,0.55,1.25,0.55H42.8c2.83,0,5.14,2.31,5.14,5.14v27.39C47.93,45.69,45.63,48,42.8,48z M5.14,6.91
	c-0.94,0-1.71,0.77-1.71,1.71v34.24c0,0.94,0.77,1.71,1.71,1.71H42.8c0.94,0,1.71-0.77,1.71-1.71V15.47c0-0.94-0.77-1.71-1.71-1.71
	H31.82c-1.42,0-2.79-0.6-3.76-1.64l-4.33-4.66c-0.32-0.35-0.78-0.55-1.25-0.55H5.14z"/>
</svg>
