<?xml version="1.0" encoding="utf-8"?>
<!-- Generator: Adobe Illustrator 24.3.0, SVG Export Plug-In . SVG Version: 6.00 Build 0)  -->
<svg version="1.1" id="图层_1" xmlns="http://www.w3.org/2000/svg" xmlns:xlink="http://www.w3.org/1999/xlink" x="0px" y="0px"
	 viewBox="0 0 48 48" style="enable-background:new 0 0 48 48;" xml:space="preserve">
<style type="text/css">
	.st0{fill:#332C2B;}
</style>
<path class="st0" d="M2.29,6.75h43.43c1.26,0,2.29,1.02,2.29,2.29l0,0c0,1.26-1.02,2.29-2.29,2.29H2.29C1.02,11.32,0,10.3,0,9.04
	l0,0C0,7.77,1.02,6.75,2.29,6.75z"/>
<path class="st0" d="M21.71,22.75h24c1.26,0,2.29,1.02,2.29,2.29l0,0c0,1.26-1.02,2.29-2.29,2.29h-24c-1.26,0-2.29-1.02-2.29-2.29
	l0,0C19.43,23.77,20.45,22.75,21.71,22.75z"/>
<path class="st0" d="M21.71,38.75h24c1.26,0,2.29,1.02,2.29,2.29l0,0c0,1.26-1.02,2.29-2.29,2.29h-24c-1.26,0-2.29-1.02-2.29-2.29
	l0,0C19.43,39.77,20.45,38.75,21.71,38.75z"/>
<path class="st0" d="M6.17,21.04c0.44-0.76,1.54-0.76,1.98,0l4.45,7.71c0.44,0.76-0.11,1.71-0.99,1.71H2.71
	c-0.88,0-1.43-0.95-0.99-1.71L6.17,21.04z"/>
<circle class="st0" cx="7.16" cy="41.61" r="2.86"/>
</svg>
