<?xml version="1.0" encoding="utf-8"?>
<!-- Generator: Adobe Illustrator 24.3.0, SVG Export Plug-In . SVG Version: 6.00 Build 0)  -->
<svg version="1.1" id="图层_1" xmlns="http://www.w3.org/2000/svg" xmlns:xlink="http://www.w3.org/1999/xlink" x="0px" y="0px"
	 viewBox="0 0 48 48" style="enable-background:new 0 0 48 48;" xml:space="preserve">
<style type="text/css">
	.st0{fill:#332C2B;}
</style>
<path class="st0" d="M2.36,3.49h43.36c1.26,0,2.28,1.02,2.28,2.28l0,0c0,1.26-1.02,2.28-2.28,2.28H2.36c-1.26,0-2.28-1.02-2.28-2.28
	l0,0C0.08,4.51,1.1,3.49,2.36,3.49z"/>
<path class="st0" d="M21.76,19.46h23.96c1.26,0,2.28,1.02,2.28,2.28l0,0c0,1.26-1.02,2.28-2.28,2.28H21.76
	c-1.26,0-2.28-1.02-2.28-2.28l0,0C19.48,20.48,20.5,19.46,21.76,19.46z"/>
<path class="st0" d="M11.49,35.44h34.23c1.26,0,2.28,1.02,2.28,2.28l0,0c0,1.26-1.02,2.28-2.28,2.28H11.49
	c-1.26,0-2.28-1.02-2.28-2.28l0,0C9.21,36.46,10.23,35.44,11.49,35.44z"/>
</svg>
